<mxfile host="app.diagrams.net" agent="Mozilla/5.0 (Macintosh; Intel Mac OS X 10_15_7) AppleWebKit/537.36 (KHTML, like Gecko) Chrome/141.0.0.0 Safari/537.36" version="28.2.5" pages="3">
  <diagram name="Сторінка-1" id="sB5_S2_s1jGg6yphNkSr">
    <mxGraphModel dx="2532" dy="2391" grid="1" gridSize="10" guides="1" tooltips="1" connect="1" arrows="1" fold="1" page="1" pageScale="1" pageWidth="827" pageHeight="1169" math="0" shadow="0">
      <root>
        <mxCell id="0" />
        <mxCell id="1" parent="0" />
        <mxCell id="l1qw31_uK3wUvw9aF-uY-4" style="edgeStyle=orthogonalEdgeStyle;rounded=0;orthogonalLoop=1;jettySize=auto;html=1;exitX=1;exitY=0.25;exitDx=0;exitDy=0;entryX=0;entryY=0.25;entryDx=0;entryDy=0;" parent="1" source="l1qw31_uK3wUvw9aF-uY-1" target="l1qw31_uK3wUvw9aF-uY-2" edge="1">
          <mxGeometry relative="1" as="geometry" />
        </mxCell>
        <mxCell id="l1qw31_uK3wUvw9aF-uY-7" style="edgeStyle=orthogonalEdgeStyle;rounded=0;orthogonalLoop=1;jettySize=auto;html=1;exitX=0.75;exitY=1;exitDx=0;exitDy=0;" parent="1" source="l1qw31_uK3wUvw9aF-uY-1" edge="1">
          <mxGeometry relative="1" as="geometry">
            <mxPoint x="140.19354838709683" y="159.99999999999977" as="targetPoint" />
          </mxGeometry>
        </mxCell>
        <mxCell id="l1qw31_uK3wUvw9aF-uY-1" value="list of boxes" style="rounded=0;whiteSpace=wrap;html=1;" parent="1" vertex="1">
          <mxGeometry x="50" y="30" width="120" height="60" as="geometry" />
        </mxCell>
        <mxCell id="l1qw31_uK3wUvw9aF-uY-5" style="edgeStyle=orthogonalEdgeStyle;rounded=0;orthogonalLoop=1;jettySize=auto;html=1;exitX=0;exitY=0.75;exitDx=0;exitDy=0;entryX=1;entryY=0.75;entryDx=0;entryDy=0;" parent="1" source="l1qw31_uK3wUvw9aF-uY-2" target="l1qw31_uK3wUvw9aF-uY-1" edge="1">
          <mxGeometry relative="1" as="geometry" />
        </mxCell>
        <mxCell id="l1qw31_uK3wUvw9aF-uY-2" value="POST: /api/picture" style="rounded=0;whiteSpace=wrap;html=1;" parent="1" vertex="1">
          <mxGeometry x="520" y="30" width="120" height="60" as="geometry" />
        </mxCell>
        <mxCell id="l1qw31_uK3wUvw9aF-uY-3" value="Server" style="text;html=1;align=center;verticalAlign=middle;whiteSpace=wrap;rounded=0;" parent="1" vertex="1">
          <mxGeometry x="550" y="-10" width="60" height="30" as="geometry" />
        </mxCell>
        <mxCell id="l1qw31_uK3wUvw9aF-uY-6" value="/api/picture/:id" style="text;html=1;align=center;verticalAlign=middle;whiteSpace=wrap;rounded=0;" parent="1" vertex="1">
          <mxGeometry x="290" y="80" width="60" height="30" as="geometry" />
        </mxCell>
        <mxCell id="l1qw31_uK3wUvw9aF-uY-14" style="edgeStyle=orthogonalEdgeStyle;rounded=0;orthogonalLoop=1;jettySize=auto;html=1;exitX=0.5;exitY=1;exitDx=0;exitDy=0;" parent="1" source="l1qw31_uK3wUvw9aF-uY-8" edge="1">
          <mxGeometry relative="1" as="geometry">
            <mxPoint x="129.87096774193537" y="250" as="targetPoint" />
          </mxGeometry>
        </mxCell>
        <mxCell id="l1qw31_uK3wUvw9aF-uY-8" value="/picture/:id" style="rounded=1;whiteSpace=wrap;html=1;" parent="1" vertex="1">
          <mxGeometry x="50" y="160" width="160" height="30" as="geometry" />
        </mxCell>
        <mxCell id="l1qw31_uK3wUvw9aF-uY-9" value="/" style="text;html=1;align=center;verticalAlign=middle;whiteSpace=wrap;rounded=0;" parent="1" vertex="1">
          <mxGeometry x="80" width="60" height="30" as="geometry" />
        </mxCell>
        <mxCell id="l1qw31_uK3wUvw9aF-uY-12" style="edgeStyle=orthogonalEdgeStyle;rounded=0;orthogonalLoop=1;jettySize=auto;html=1;exitX=0;exitY=0.75;exitDx=0;exitDy=0;entryX=1;entryY=0.75;entryDx=0;entryDy=0;" parent="1" source="l1qw31_uK3wUvw9aF-uY-10" target="l1qw31_uK3wUvw9aF-uY-8" edge="1">
          <mxGeometry relative="1" as="geometry" />
        </mxCell>
        <mxCell id="l1qw31_uK3wUvw9aF-uY-10" value="GET: /api/picture/:id" style="rounded=0;whiteSpace=wrap;html=1;" parent="1" vertex="1">
          <mxGeometry x="520" y="150" width="120" height="60" as="geometry" />
        </mxCell>
        <mxCell id="l1qw31_uK3wUvw9aF-uY-11" style="edgeStyle=orthogonalEdgeStyle;rounded=0;orthogonalLoop=1;jettySize=auto;html=1;exitX=1;exitY=0.25;exitDx=0;exitDy=0;entryX=0.002;entryY=0.335;entryDx=0;entryDy=0;entryPerimeter=0;" parent="1" source="l1qw31_uK3wUvw9aF-uY-8" target="l1qw31_uK3wUvw9aF-uY-10" edge="1">
          <mxGeometry relative="1" as="geometry" />
        </mxCell>
        <mxCell id="l1qw31_uK3wUvw9aF-uY-13" value="&lt;meta charset=&quot;utf-8&quot;&gt;&lt;span style=&quot;color: rgb(0, 0, 0); font-family: Helvetica; font-size: 12px; font-style: normal; font-variant-ligatures: normal; font-variant-caps: normal; font-weight: 400; letter-spacing: normal; orphans: 2; text-align: center; text-indent: 0px; text-transform: none; widows: 2; word-spacing: 0px; -webkit-text-stroke-width: 0px; white-space: normal; background-color: rgb(251, 251, 251); text-decoration-thickness: initial; text-decoration-style: initial; text-decoration-color: initial; display: inline !important; float: none;&quot;&gt;list of boxes&lt;/span&gt;" style="text;html=1;align=center;verticalAlign=middle;whiteSpace=wrap;rounded=0;" parent="1" vertex="1">
          <mxGeometry x="300" y="200" width="110" height="30" as="geometry" />
        </mxCell>
        <mxCell id="l1qw31_uK3wUvw9aF-uY-27" style="edgeStyle=orthogonalEdgeStyle;rounded=0;orthogonalLoop=1;jettySize=auto;html=1;exitX=0.5;exitY=1;exitDx=0;exitDy=0;" parent="1" source="l1qw31_uK3wUvw9aF-uY-15" edge="1">
          <mxGeometry relative="1" as="geometry">
            <mxPoint x="129.87096774193537" y="350" as="targetPoint" />
          </mxGeometry>
        </mxCell>
        <mxCell id="l1qw31_uK3wUvw9aF-uY-15" value="render into dom" style="rounded=0;whiteSpace=wrap;html=1;" parent="1" vertex="1">
          <mxGeometry x="70" y="250" width="120" height="60" as="geometry" />
        </mxCell>
        <mxCell id="l1qw31_uK3wUvw9aF-uY-16" value="" style="shape=cylinder3;whiteSpace=wrap;html=1;boundedLbl=1;backgroundOutline=1;size=15;" parent="1" vertex="1">
          <mxGeometry x="767" y="60" width="60" height="80" as="geometry" />
        </mxCell>
        <mxCell id="l1qw31_uK3wUvw9aF-uY-17" style="edgeStyle=orthogonalEdgeStyle;rounded=0;orthogonalLoop=1;jettySize=auto;html=1;exitX=1;exitY=0.25;exitDx=0;exitDy=0;entryX=0;entryY=0;entryDx=0;entryDy=27.5;entryPerimeter=0;" parent="1" source="l1qw31_uK3wUvw9aF-uY-2" target="l1qw31_uK3wUvw9aF-uY-16" edge="1">
          <mxGeometry relative="1" as="geometry" />
        </mxCell>
        <mxCell id="l1qw31_uK3wUvw9aF-uY-18" style="edgeStyle=orthogonalEdgeStyle;rounded=0;orthogonalLoop=1;jettySize=auto;html=1;exitX=1;exitY=0.5;exitDx=0;exitDy=0;entryX=0;entryY=0;entryDx=0;entryDy=52.5;entryPerimeter=0;" parent="1" source="l1qw31_uK3wUvw9aF-uY-10" target="l1qw31_uK3wUvw9aF-uY-16" edge="1">
          <mxGeometry relative="1" as="geometry" />
        </mxCell>
        <mxCell id="l1qw31_uK3wUvw9aF-uY-19" value="create" style="text;html=1;align=center;verticalAlign=middle;whiteSpace=wrap;rounded=0;" parent="1" vertex="1">
          <mxGeometry x="700" y="60" width="60" height="30" as="geometry" />
        </mxCell>
        <mxCell id="l1qw31_uK3wUvw9aF-uY-20" value="read" style="text;html=1;align=center;verticalAlign=middle;whiteSpace=wrap;rounded=0;" parent="1" vertex="1">
          <mxGeometry x="700" y="110" width="60" height="30" as="geometry" />
        </mxCell>
        <mxCell id="l1qw31_uK3wUvw9aF-uY-21" value="DELETE: /api/picture/:id" style="rounded=0;whiteSpace=wrap;html=1;" parent="1" vertex="1">
          <mxGeometry x="520" y="360" width="150" height="60" as="geometry" />
        </mxCell>
        <mxCell id="l1qw31_uK3wUvw9aF-uY-22" style="edgeStyle=orthogonalEdgeStyle;rounded=0;orthogonalLoop=1;jettySize=auto;html=1;exitX=1;exitY=0.25;exitDx=0;exitDy=0;entryX=0.145;entryY=1;entryDx=0;entryDy=-4.35;entryPerimeter=0;" parent="1" source="l1qw31_uK3wUvw9aF-uY-21" target="l1qw31_uK3wUvw9aF-uY-16" edge="1">
          <mxGeometry relative="1" as="geometry" />
        </mxCell>
        <mxCell id="l1qw31_uK3wUvw9aF-uY-23" value="delete" style="text;html=1;align=center;verticalAlign=middle;whiteSpace=wrap;rounded=0;" parent="1" vertex="1">
          <mxGeometry x="690" y="375" width="60" height="30" as="geometry" />
        </mxCell>
        <mxCell id="l1qw31_uK3wUvw9aF-uY-25" style="edgeStyle=orthogonalEdgeStyle;rounded=0;orthogonalLoop=1;jettySize=auto;html=1;exitX=1;exitY=0.25;exitDx=0;exitDy=0;entryX=0;entryY=0.25;entryDx=0;entryDy=0;" parent="1" source="l1qw31_uK3wUvw9aF-uY-24" target="l1qw31_uK3wUvw9aF-uY-21" edge="1">
          <mxGeometry relative="1" as="geometry" />
        </mxCell>
        <mxCell id="l1qw31_uK3wUvw9aF-uY-24" value="?" style="rounded=0;whiteSpace=wrap;html=1;" parent="1" vertex="1">
          <mxGeometry x="60" y="570" width="120" height="60" as="geometry" />
        </mxCell>
        <mxCell id="l1qw31_uK3wUvw9aF-uY-28" value="duplicate" style="rounded=0;whiteSpace=wrap;html=1;" parent="1" vertex="1">
          <mxGeometry x="60" y="350" width="120" height="60" as="geometry" />
        </mxCell>
        <mxCell id="l1qw31_uK3wUvw9aF-uY-29" style="edgeStyle=orthogonalEdgeStyle;rounded=0;orthogonalLoop=1;jettySize=auto;html=1;exitX=0;exitY=0.5;exitDx=0;exitDy=0;entryX=-0.001;entryY=0.389;entryDx=0;entryDy=0;entryPerimeter=0;" parent="1" source="l1qw31_uK3wUvw9aF-uY-28" target="l1qw31_uK3wUvw9aF-uY-1" edge="1">
          <mxGeometry relative="1" as="geometry" />
        </mxCell>
        <mxCell id="Hule5FiHvDQWXW8AWHDJ-1" value="Table" style="shape=table;startSize=30;container=1;collapsible=1;childLayout=tableLayout;fixedRows=1;rowLines=0;fontStyle=1;align=center;resizeLast=1;html=1;" parent="1" vertex="1">
          <mxGeometry x="-460" y="-500" width="180" height="180" as="geometry" />
        </mxCell>
        <mxCell id="Hule5FiHvDQWXW8AWHDJ-2" value="" style="shape=tableRow;horizontal=0;startSize=0;swimlaneHead=0;swimlaneBody=0;fillColor=none;collapsible=0;dropTarget=0;points=[[0,0.5],[1,0.5]];portConstraint=eastwest;top=0;left=0;right=0;bottom=1;" parent="Hule5FiHvDQWXW8AWHDJ-1" vertex="1">
          <mxGeometry y="30" width="180" height="30" as="geometry" />
        </mxCell>
        <mxCell id="Hule5FiHvDQWXW8AWHDJ-3" value="PK" style="shape=partialRectangle;connectable=0;fillColor=none;top=0;left=0;bottom=0;right=0;fontStyle=1;overflow=hidden;whiteSpace=wrap;html=1;" parent="Hule5FiHvDQWXW8AWHDJ-2" vertex="1">
          <mxGeometry width="30" height="30" as="geometry">
            <mxRectangle width="30" height="30" as="alternateBounds" />
          </mxGeometry>
        </mxCell>
        <mxCell id="Hule5FiHvDQWXW8AWHDJ-4" value="UniqueID" style="shape=partialRectangle;connectable=0;fillColor=none;top=0;left=0;bottom=0;right=0;align=left;spacingLeft=6;fontStyle=5;overflow=hidden;whiteSpace=wrap;html=1;" parent="Hule5FiHvDQWXW8AWHDJ-2" vertex="1">
          <mxGeometry x="30" width="150" height="30" as="geometry">
            <mxRectangle width="150" height="30" as="alternateBounds" />
          </mxGeometry>
        </mxCell>
        <mxCell id="Hule5FiHvDQWXW8AWHDJ-5" value="" style="shape=tableRow;horizontal=0;startSize=0;swimlaneHead=0;swimlaneBody=0;fillColor=none;collapsible=0;dropTarget=0;points=[[0,0.5],[1,0.5]];portConstraint=eastwest;top=0;left=0;right=0;bottom=0;" parent="Hule5FiHvDQWXW8AWHDJ-1" vertex="1">
          <mxGeometry y="60" width="180" height="30" as="geometry" />
        </mxCell>
        <mxCell id="Hule5FiHvDQWXW8AWHDJ-6" value="" style="shape=partialRectangle;connectable=0;fillColor=none;top=0;left=0;bottom=0;right=0;editable=1;overflow=hidden;whiteSpace=wrap;html=1;" parent="Hule5FiHvDQWXW8AWHDJ-5" vertex="1">
          <mxGeometry width="30" height="30" as="geometry">
            <mxRectangle width="30" height="30" as="alternateBounds" />
          </mxGeometry>
        </mxCell>
        <mxCell id="Hule5FiHvDQWXW8AWHDJ-7" value="Row 1" style="shape=partialRectangle;connectable=0;fillColor=none;top=0;left=0;bottom=0;right=0;align=left;spacingLeft=6;overflow=hidden;whiteSpace=wrap;html=1;" parent="Hule5FiHvDQWXW8AWHDJ-5" vertex="1">
          <mxGeometry x="30" width="150" height="30" as="geometry">
            <mxRectangle width="150" height="30" as="alternateBounds" />
          </mxGeometry>
        </mxCell>
        <mxCell id="Hule5FiHvDQWXW8AWHDJ-8" value="" style="shape=tableRow;horizontal=0;startSize=0;swimlaneHead=0;swimlaneBody=0;fillColor=none;collapsible=0;dropTarget=0;points=[[0,0.5],[1,0.5]];portConstraint=eastwest;top=0;left=0;right=0;bottom=0;" parent="Hule5FiHvDQWXW8AWHDJ-1" vertex="1">
          <mxGeometry y="90" width="180" height="30" as="geometry" />
        </mxCell>
        <mxCell id="Hule5FiHvDQWXW8AWHDJ-9" value="" style="shape=partialRectangle;connectable=0;fillColor=none;top=0;left=0;bottom=0;right=0;editable=1;overflow=hidden;whiteSpace=wrap;html=1;" parent="Hule5FiHvDQWXW8AWHDJ-8" vertex="1">
          <mxGeometry width="30" height="30" as="geometry">
            <mxRectangle width="30" height="30" as="alternateBounds" />
          </mxGeometry>
        </mxCell>
        <mxCell id="Hule5FiHvDQWXW8AWHDJ-10" value="Row 2" style="shape=partialRectangle;connectable=0;fillColor=none;top=0;left=0;bottom=0;right=0;align=left;spacingLeft=6;overflow=hidden;whiteSpace=wrap;html=1;" parent="Hule5FiHvDQWXW8AWHDJ-8" vertex="1">
          <mxGeometry x="30" width="150" height="30" as="geometry">
            <mxRectangle width="150" height="30" as="alternateBounds" />
          </mxGeometry>
        </mxCell>
        <mxCell id="Hule5FiHvDQWXW8AWHDJ-11" value="" style="shape=tableRow;horizontal=0;startSize=0;swimlaneHead=0;swimlaneBody=0;fillColor=none;collapsible=0;dropTarget=0;points=[[0,0.5],[1,0.5]];portConstraint=eastwest;top=0;left=0;right=0;bottom=0;" parent="Hule5FiHvDQWXW8AWHDJ-1" vertex="1">
          <mxGeometry y="120" width="180" height="30" as="geometry" />
        </mxCell>
        <mxCell id="Hule5FiHvDQWXW8AWHDJ-12" value="" style="shape=partialRectangle;connectable=0;fillColor=none;top=0;left=0;bottom=0;right=0;editable=1;overflow=hidden;whiteSpace=wrap;html=1;" parent="Hule5FiHvDQWXW8AWHDJ-11" vertex="1">
          <mxGeometry width="30" height="30" as="geometry">
            <mxRectangle width="30" height="30" as="alternateBounds" />
          </mxGeometry>
        </mxCell>
        <mxCell id="Hule5FiHvDQWXW8AWHDJ-13" value="Row 3" style="shape=partialRectangle;connectable=0;fillColor=none;top=0;left=0;bottom=0;right=0;align=left;spacingLeft=6;overflow=hidden;whiteSpace=wrap;html=1;" parent="Hule5FiHvDQWXW8AWHDJ-11" vertex="1">
          <mxGeometry x="30" width="150" height="30" as="geometry">
            <mxRectangle width="150" height="30" as="alternateBounds" />
          </mxGeometry>
        </mxCell>
        <mxCell id="Hule5FiHvDQWXW8AWHDJ-14" value="" style="shape=tableRow;horizontal=0;startSize=0;swimlaneHead=0;swimlaneBody=0;fillColor=none;collapsible=0;dropTarget=0;points=[[0,0.5],[1,0.5]];portConstraint=eastwest;top=0;left=0;right=0;bottom=0;" parent="Hule5FiHvDQWXW8AWHDJ-1" vertex="1">
          <mxGeometry y="150" width="180" height="30" as="geometry" />
        </mxCell>
        <mxCell id="Hule5FiHvDQWXW8AWHDJ-15" value="" style="shape=partialRectangle;connectable=0;fillColor=none;top=0;left=0;bottom=0;right=0;editable=1;overflow=hidden;whiteSpace=wrap;html=1;" parent="Hule5FiHvDQWXW8AWHDJ-14" vertex="1">
          <mxGeometry width="30" height="30" as="geometry">
            <mxRectangle width="30" height="30" as="alternateBounds" />
          </mxGeometry>
        </mxCell>
        <mxCell id="Hule5FiHvDQWXW8AWHDJ-16" value="Row 3" style="shape=partialRectangle;connectable=0;fillColor=none;top=0;left=0;bottom=0;right=0;align=left;spacingLeft=6;overflow=hidden;whiteSpace=wrap;html=1;" parent="Hule5FiHvDQWXW8AWHDJ-14" vertex="1">
          <mxGeometry x="30" width="150" height="30" as="geometry">
            <mxRectangle width="150" height="30" as="alternateBounds" />
          </mxGeometry>
        </mxCell>
      </root>
    </mxGraphModel>
  </diagram>
  <diagram id="eVuBfKnK9kKhmNsS3b6k" name="Сторінка-3">
    <mxGraphModel dx="1187" dy="816" grid="1" gridSize="10" guides="1" tooltips="1" connect="1" arrows="1" fold="1" page="1" pageScale="1" pageWidth="827" pageHeight="1169" math="0" shadow="0">
      <root>
        <mxCell id="0" />
        <mxCell id="1" parent="0" />
        <mxCell id="W33ObHpI5OblzP53pT3c-2" value="" style="rounded=0;whiteSpace=wrap;html=1;" vertex="1" parent="1">
          <mxGeometry x="70" y="220" width="200" height="340" as="geometry" />
        </mxCell>
        <mxCell id="W33ObHpI5OblzP53pT3c-3" value="" style="rounded=0;whiteSpace=wrap;html=1;" vertex="1" parent="1">
          <mxGeometry x="440" y="220" width="200" height="340" as="geometry" />
        </mxCell>
        <mxCell id="W33ObHpI5OblzP53pT3c-4" value="" style="ellipse;whiteSpace=wrap;html=1;aspect=fixed;" vertex="1" parent="1">
          <mxGeometry x="130" y="280" width="80" height="80" as="geometry" />
        </mxCell>
        <mxCell id="W33ObHpI5OblzP53pT3c-5" value="" style="triangle;whiteSpace=wrap;html=1;" vertex="1" parent="1">
          <mxGeometry x="150" y="290" width="50" height="60" as="geometry" />
        </mxCell>
        <mxCell id="W33ObHpI5OblzP53pT3c-14" style="edgeStyle=orthogonalEdgeStyle;rounded=0;orthogonalLoop=1;jettySize=auto;html=1;exitX=1;exitY=0.25;exitDx=0;exitDy=0;entryX=1;entryY=0.75;entryDx=0;entryDy=0;" edge="1" parent="1" source="W33ObHpI5OblzP53pT3c-6" target="W33ObHpI5OblzP53pT3c-9">
          <mxGeometry relative="1" as="geometry" />
        </mxCell>
        <mxCell id="W33ObHpI5OblzP53pT3c-32" style="edgeStyle=orthogonalEdgeStyle;rounded=0;orthogonalLoop=1;jettySize=auto;html=1;exitX=1;exitY=0.5;exitDx=0;exitDy=0;fillColor=#dae8fc;strokeColor=#6c8ebf;strokeWidth=5;" edge="1" parent="1" source="W33ObHpI5OblzP53pT3c-6" target="W33ObHpI5OblzP53pT3c-3">
          <mxGeometry relative="1" as="geometry" />
        </mxCell>
        <mxCell id="W33ObHpI5OblzP53pT3c-34" style="edgeStyle=orthogonalEdgeStyle;rounded=0;orthogonalLoop=1;jettySize=auto;html=1;exitX=1;exitY=0.5;exitDx=0;exitDy=0;entryX=-0.01;entryY=0.324;entryDx=0;entryDy=0;fillColor=#dae8fc;strokeColor=#6c8ebf;strokeWidth=6;entryPerimeter=0;" edge="1" parent="1" source="W33ObHpI5OblzP53pT3c-6" target="W33ObHpI5OblzP53pT3c-9">
          <mxGeometry relative="1" as="geometry">
            <Array as="points">
              <mxPoint x="670" y="75" />
              <mxPoint x="670" y="720" />
            </Array>
          </mxGeometry>
        </mxCell>
        <mxCell id="W33ObHpI5OblzP53pT3c-6" value="live server+ websoket" style="whiteSpace=wrap;html=1;aspect=fixed;" vertex="1" parent="1">
          <mxGeometry x="290" y="20" width="110" height="110" as="geometry" />
        </mxCell>
        <mxCell id="W33ObHpI5OblzP53pT3c-7" value="" style="rounded=0;whiteSpace=wrap;html=1;" vertex="1" parent="1">
          <mxGeometry x="700" y="220" width="200" height="340" as="geometry" />
        </mxCell>
        <mxCell id="W33ObHpI5OblzP53pT3c-8" value="" style="rounded=0;whiteSpace=wrap;html=1;" vertex="1" parent="1">
          <mxGeometry x="440" y="610" width="200" height="340" as="geometry" />
        </mxCell>
        <mxCell id="W33ObHpI5OblzP53pT3c-35" value="" style="edgeStyle=orthogonalEdgeStyle;rounded=0;orthogonalLoop=1;jettySize=auto;html=1;" edge="1" parent="1" source="W33ObHpI5OblzP53pT3c-9" target="W33ObHpI5OblzP53pT3c-8">
          <mxGeometry relative="1" as="geometry" />
        </mxCell>
        <mxCell id="W33ObHpI5OblzP53pT3c-9" value="" style="rounded=0;whiteSpace=wrap;html=1;" vertex="1" parent="1">
          <mxGeometry x="700" y="610" width="200" height="340" as="geometry" />
        </mxCell>
        <mxCell id="W33ObHpI5OblzP53pT3c-10" style="edgeStyle=orthogonalEdgeStyle;rounded=0;orthogonalLoop=1;jettySize=auto;html=1;exitX=0.5;exitY=0;exitDx=0;exitDy=0;entryX=0.325;entryY=0.977;entryDx=0;entryDy=0;entryPerimeter=0;" edge="1" parent="1" source="W33ObHpI5OblzP53pT3c-2" target="W33ObHpI5OblzP53pT3c-6">
          <mxGeometry relative="1" as="geometry" />
        </mxCell>
        <mxCell id="W33ObHpI5OblzP53pT3c-11" style="edgeStyle=orthogonalEdgeStyle;rounded=0;orthogonalLoop=1;jettySize=auto;html=1;exitX=0.5;exitY=1;exitDx=0;exitDy=0;entryX=0.429;entryY=-0.011;entryDx=0;entryDy=0;entryPerimeter=0;" edge="1" parent="1" source="W33ObHpI5OblzP53pT3c-6" target="W33ObHpI5OblzP53pT3c-3">
          <mxGeometry relative="1" as="geometry" />
        </mxCell>
        <mxCell id="W33ObHpI5OblzP53pT3c-12" style="edgeStyle=orthogonalEdgeStyle;rounded=0;orthogonalLoop=1;jettySize=auto;html=1;exitX=0.75;exitY=1;exitDx=0;exitDy=0;entryX=0.341;entryY=0.007;entryDx=0;entryDy=0;entryPerimeter=0;" edge="1" parent="1" source="W33ObHpI5OblzP53pT3c-6" target="W33ObHpI5OblzP53pT3c-7">
          <mxGeometry relative="1" as="geometry" />
        </mxCell>
        <mxCell id="W33ObHpI5OblzP53pT3c-13" style="edgeStyle=orthogonalEdgeStyle;rounded=0;orthogonalLoop=1;jettySize=auto;html=1;exitX=1;exitY=0.75;exitDx=0;exitDy=0;entryX=0.004;entryY=0.423;entryDx=0;entryDy=0;entryPerimeter=0;" edge="1" parent="1" source="W33ObHpI5OblzP53pT3c-6" target="W33ObHpI5OblzP53pT3c-8">
          <mxGeometry relative="1" as="geometry" />
        </mxCell>
        <mxCell id="W33ObHpI5OblzP53pT3c-15" style="edgeStyle=orthogonalEdgeStyle;rounded=0;orthogonalLoop=1;jettySize=auto;html=1;exitX=0.5;exitY=0;exitDx=0;exitDy=0;entryX=1.007;entryY=0.432;entryDx=0;entryDy=0;entryPerimeter=0;strokeWidth=5;fillColor=#d5e8d4;strokeColor=#82b366;" edge="1" parent="1" source="W33ObHpI5OblzP53pT3c-21" target="W33ObHpI5OblzP53pT3c-6">
          <mxGeometry relative="1" as="geometry" />
        </mxCell>
        <mxCell id="W33ObHpI5OblzP53pT3c-19" value="" style="group" vertex="1" connectable="0" parent="1">
          <mxGeometry x="500" y="300" width="80" height="80" as="geometry" />
        </mxCell>
        <mxCell id="W33ObHpI5OblzP53pT3c-16" value="" style="ellipse;whiteSpace=wrap;html=1;aspect=fixed;" vertex="1" parent="W33ObHpI5OblzP53pT3c-19">
          <mxGeometry width="80" height="80" as="geometry" />
        </mxCell>
        <mxCell id="W33ObHpI5OblzP53pT3c-17" value="" style="rounded=0;whiteSpace=wrap;html=1;" vertex="1" parent="W33ObHpI5OblzP53pT3c-19">
          <mxGeometry x="20" y="10" width="10" height="60" as="geometry" />
        </mxCell>
        <mxCell id="W33ObHpI5OblzP53pT3c-18" value="" style="rounded=0;whiteSpace=wrap;html=1;" vertex="1" parent="W33ObHpI5OblzP53pT3c-19">
          <mxGeometry x="50" y="10" width="10" height="60" as="geometry" />
        </mxCell>
        <mxCell id="W33ObHpI5OblzP53pT3c-20" value="" style="group" vertex="1" connectable="0" parent="1">
          <mxGeometry x="760" y="300" width="80" height="80" as="geometry" />
        </mxCell>
        <mxCell id="W33ObHpI5OblzP53pT3c-21" value="" style="ellipse;whiteSpace=wrap;html=1;aspect=fixed;" vertex="1" parent="W33ObHpI5OblzP53pT3c-20">
          <mxGeometry width="80" height="80" as="geometry" />
        </mxCell>
        <mxCell id="W33ObHpI5OblzP53pT3c-22" value="" style="rounded=0;whiteSpace=wrap;html=1;" vertex="1" parent="W33ObHpI5OblzP53pT3c-20">
          <mxGeometry x="20" y="10" width="10" height="60" as="geometry" />
        </mxCell>
        <mxCell id="W33ObHpI5OblzP53pT3c-23" value="" style="rounded=0;whiteSpace=wrap;html=1;" vertex="1" parent="W33ObHpI5OblzP53pT3c-20">
          <mxGeometry x="50" y="10" width="10" height="60" as="geometry" />
        </mxCell>
        <mxCell id="W33ObHpI5OblzP53pT3c-24" value="" style="group" vertex="1" connectable="0" parent="1">
          <mxGeometry x="500" y="680" width="80" height="80" as="geometry" />
        </mxCell>
        <mxCell id="W33ObHpI5OblzP53pT3c-25" value="" style="ellipse;whiteSpace=wrap;html=1;aspect=fixed;" vertex="1" parent="W33ObHpI5OblzP53pT3c-24">
          <mxGeometry width="80" height="80" as="geometry" />
        </mxCell>
        <mxCell id="W33ObHpI5OblzP53pT3c-26" value="" style="rounded=0;whiteSpace=wrap;html=1;" vertex="1" parent="W33ObHpI5OblzP53pT3c-24">
          <mxGeometry x="20" y="10" width="10" height="60" as="geometry" />
        </mxCell>
        <mxCell id="W33ObHpI5OblzP53pT3c-27" value="" style="rounded=0;whiteSpace=wrap;html=1;" vertex="1" parent="W33ObHpI5OblzP53pT3c-24">
          <mxGeometry x="50" y="10" width="10" height="60" as="geometry" />
        </mxCell>
        <mxCell id="W33ObHpI5OblzP53pT3c-28" value="" style="group" vertex="1" connectable="0" parent="1">
          <mxGeometry x="760" y="680" width="80" height="80" as="geometry" />
        </mxCell>
        <mxCell id="W33ObHpI5OblzP53pT3c-29" value="" style="ellipse;whiteSpace=wrap;html=1;aspect=fixed;" vertex="1" parent="W33ObHpI5OblzP53pT3c-28">
          <mxGeometry width="80" height="80" as="geometry" />
        </mxCell>
        <mxCell id="W33ObHpI5OblzP53pT3c-30" value="" style="rounded=0;whiteSpace=wrap;html=1;" vertex="1" parent="W33ObHpI5OblzP53pT3c-28">
          <mxGeometry x="20" y="10" width="10" height="60" as="geometry" />
        </mxCell>
        <mxCell id="W33ObHpI5OblzP53pT3c-31" value="" style="rounded=0;whiteSpace=wrap;html=1;" vertex="1" parent="W33ObHpI5OblzP53pT3c-28">
          <mxGeometry x="50" y="10" width="10" height="60" as="geometry" />
        </mxCell>
        <mxCell id="W33ObHpI5OblzP53pT3c-33" style="edgeStyle=orthogonalEdgeStyle;rounded=0;orthogonalLoop=1;jettySize=auto;html=1;exitX=1;exitY=0.5;exitDx=0;exitDy=0;entryX=1.005;entryY=0.062;entryDx=0;entryDy=0;entryPerimeter=0;strokeWidth=5;fillColor=#dae8fc;strokeColor=#6c8ebf;" edge="1" parent="1" source="W33ObHpI5OblzP53pT3c-6" target="W33ObHpI5OblzP53pT3c-8">
          <mxGeometry relative="1" as="geometry" />
        </mxCell>
      </root>
    </mxGraphModel>
  </diagram>
  <diagram id="ppQE7w3QDt00TgJDZWBN" name="Сторінка-4">
    <mxGraphModel dx="2536" dy="1962" grid="1" gridSize="10" guides="1" tooltips="1" connect="1" arrows="1" fold="1" page="1" pageScale="1" pageWidth="827" pageHeight="1169" math="0" shadow="0">
      <root>
        <mxCell id="0" />
        <mxCell id="1" parent="0" />
        <mxCell id="ZnyY1L5BFLz_Gj6ocObE-1" value="search by address&lt;div&gt;&lt;br&gt;&lt;/div&gt;" style="text;html=1;align=center;verticalAlign=middle;resizable=0;points=[];autosize=1;strokeColor=none;fillColor=none;" parent="1" vertex="1">
          <mxGeometry x="-440" y="720" width="120" height="40" as="geometry" />
        </mxCell>
        <mxCell id="ZnyY1L5BFLz_Gj6ocObE-11" value="" style="edgeStyle=orthogonalEdgeStyle;rounded=0;orthogonalLoop=1;jettySize=auto;html=1;entryX=-0.015;entryY=0.583;entryDx=0;entryDy=0;entryPerimeter=0;" parent="1" source="ZnyY1L5BFLz_Gj6ocObE-2" target="ZnyY1L5BFLz_Gj6ocObE-4" edge="1">
          <mxGeometry relative="1" as="geometry">
            <mxPoint x="120" y="460" as="targetPoint" />
          </mxGeometry>
        </mxCell>
        <mxCell id="ZnyY1L5BFLz_Gj6ocObE-2" value="&lt;div style=&quot;color: rgb(209, 211, 219); background-color: rgb(24, 29, 39); font-family: &amp;quot;JetBrains Mono&amp;quot;, Menlo, Monaco, &amp;quot;Courier New&amp;quot;, monospace; font-size: 16px; line-height: 28px; white-space-collapse: preserve;&quot;&gt;&lt;div&gt;&lt;span style=&quot;color: rgb(179, 140, 255);&quot;&gt;type&lt;/span&gt; &lt;span style=&quot;color: rgb(129, 207, 224);&quot;&gt;AddressDetails&lt;/span&gt; &lt;span style=&quot;color: rgb(213, 216, 224);&quot;&gt;=&lt;/span&gt; {&lt;/div&gt;&lt;div&gt;  &lt;span style=&quot;color: rgb(224, 227, 238);&quot;&gt;formatted_address&lt;/span&gt;&lt;span style=&quot;color: rgb(213, 216, 224);&quot;&gt;:&lt;/span&gt; &lt;span style=&quot;color: rgb(129, 207, 224);&quot;&gt;string&lt;/span&gt;;&lt;/div&gt;&lt;div&gt;  &lt;span style=&quot;color: rgb(224, 227, 238);&quot;&gt;geometry&lt;/span&gt;&lt;span style=&quot;color: rgb(213, 216, 224);&quot;&gt;:&lt;/span&gt; { &lt;/div&gt;&lt;div&gt;&lt;span style=&quot;color: rgb(224, 227, 238);&quot;&gt;    location&lt;/span&gt;&lt;span style=&quot;color: rgb(213, 216, 224);&quot;&gt;:&lt;/span&gt; { &lt;/div&gt;&lt;div&gt;&lt;span style=&quot;color: rgb(224, 227, 238);&quot;&gt;      lat&lt;/span&gt;&lt;span style=&quot;color: rgb(213, 216, 224);&quot;&gt;:&lt;/span&gt; &lt;span style=&quot;color: rgb(129, 207, 224);&quot;&gt;number&lt;/span&gt;; &lt;/div&gt;&lt;div&gt;&lt;span style=&quot;color: rgb(224, 227, 238);&quot;&gt;      lng&lt;/span&gt;&lt;span style=&quot;color: rgb(213, 216, 224);&quot;&gt;:&lt;/span&gt; &lt;span style=&quot;color: rgb(129, 207, 224);&quot;&gt;number&lt;/span&gt; &lt;/div&gt;&lt;div&gt;    } &lt;/div&gt;&lt;div&gt;  };&lt;/div&gt;&lt;div&gt;  &lt;span style=&quot;color: rgb(224, 227, 238);&quot;&gt;address_components&lt;/span&gt;&lt;span style=&quot;color: rgb(213, 216, 224);&quot;&gt;:&lt;/span&gt; {&lt;/div&gt;&lt;div&gt;    &lt;span style=&quot;color: rgb(224, 227, 238);&quot;&gt;long_name&lt;/span&gt;&lt;span style=&quot;color: rgb(213, 216, 224);&quot;&gt;:&lt;/span&gt; &lt;span style=&quot;color: rgb(129, 207, 224);&quot;&gt;string&lt;/span&gt;;&lt;/div&gt;&lt;div&gt;    &lt;span style=&quot;color: rgb(224, 227, 238);&quot;&gt;short_name&lt;/span&gt;&lt;span style=&quot;color: rgb(213, 216, 224);&quot;&gt;:&lt;/span&gt; &lt;span style=&quot;color: rgb(129, 207, 224);&quot;&gt;string&lt;/span&gt;;&lt;/div&gt;&lt;div&gt;    &lt;span style=&quot;color: rgb(224, 227, 238);&quot;&gt;types&lt;/span&gt;&lt;span style=&quot;color: rgb(213, 216, 224);&quot;&gt;:&lt;/span&gt; &lt;span style=&quot;color: rgb(129, 207, 224);&quot;&gt;string&lt;/span&gt;[];&lt;/div&gt;&lt;div&gt;  }[];&lt;/div&gt;&lt;div&gt;};&lt;/div&gt;&lt;/div&gt;" style="text;html=1;align=left;verticalAlign=middle;resizable=0;points=[];autosize=1;strokeColor=none;fillColor=none;" parent="1" vertex="1">
          <mxGeometry x="-570" y="125" width="290" height="410" as="geometry" />
        </mxCell>
        <mxCell id="ZnyY1L5BFLz_Gj6ocObE-3" value="form 1" style="text;html=1;align=center;verticalAlign=middle;resizable=0;points=[];autosize=1;strokeColor=none;fillColor=none;" parent="1" vertex="1">
          <mxGeometry x="320" y="228" width="60" height="30" as="geometry" />
        </mxCell>
        <mxCell id="QfVCGiHnRyfxYUild1tm-12" style="edgeStyle=orthogonalEdgeStyle;rounded=0;orthogonalLoop=1;jettySize=auto;html=1;" parent="1" source="ZnyY1L5BFLz_Gj6ocObE-4" target="ZnyY1L5BFLz_Gj6ocObE-6" edge="1">
          <mxGeometry relative="1" as="geometry" />
        </mxCell>
        <mxCell id="ZnyY1L5BFLz_Gj6ocObE-4" value="&lt;div style=&quot;color: rgb(209, 211, 219); background-color: rgb(24, 29, 39); font-family: &amp;quot;JetBrains Mono&amp;quot;, Menlo, Monaco, &amp;quot;Courier New&amp;quot;, monospace; font-size: 16px; line-height: 28px; white-space-collapse: preserve;&quot;&gt;&lt;div&gt;&lt;span style=&quot;color: #b38cff;&quot;&gt;type&lt;/span&gt; &lt;span style=&quot;color: #81cfe0;&quot;&gt;PropertyAddress&lt;/span&gt; &lt;span style=&quot;color: #d5d8e0;&quot;&gt;=&lt;/span&gt; {&lt;/div&gt;&lt;div&gt;  &lt;span style=&quot;color: #e0e3ee;&quot;&gt;street&lt;/span&gt;&lt;span style=&quot;color: #d5d8e0;&quot;&gt;:&lt;/span&gt; &lt;span style=&quot;color: #81cfe0;&quot;&gt;string&lt;/span&gt;;&lt;/div&gt;&lt;div&gt;  &lt;span style=&quot;color: #e0e3ee;&quot;&gt;unit&lt;/span&gt;&lt;span style=&quot;color: #d5d8e0;&quot;&gt;?:&lt;/span&gt; &lt;span style=&quot;color: #81cfe0;&quot;&gt;string&lt;/span&gt;;&lt;/div&gt;&lt;div&gt;  &lt;span style=&quot;color: #e0e3ee;&quot;&gt;city&lt;/span&gt;&lt;span style=&quot;color: #d5d8e0;&quot;&gt;:&lt;/span&gt; &lt;span style=&quot;color: #81cfe0;&quot;&gt;string&lt;/span&gt;;&lt;/div&gt;&lt;div&gt;  &lt;span style=&quot;color: #e0e3ee;&quot;&gt;state&lt;/span&gt;&lt;span style=&quot;color: #d5d8e0;&quot;&gt;:&lt;/span&gt; &lt;span style=&quot;color: #81cfe0;&quot;&gt;string&lt;/span&gt;;&lt;/div&gt;&lt;div&gt;  &lt;span style=&quot;color: #e0e3ee;&quot;&gt;zipCode&lt;/span&gt;&lt;span style=&quot;color: #d5d8e0;&quot;&gt;:&lt;/span&gt; &lt;span style=&quot;color: #81cfe0;&quot;&gt;string&lt;/span&gt;;&lt;/div&gt;&lt;div&gt;  &lt;span style=&quot;color: #e0e3ee;&quot;&gt;country&lt;/span&gt;&lt;span style=&quot;color: #d5d8e0;&quot;&gt;:&lt;/span&gt; &lt;span style=&quot;color: #81cfe0;&quot;&gt;string&lt;/span&gt;;&lt;/div&gt;&lt;div style=&quot;&quot;&gt;};&lt;/div&gt;&lt;/div&gt;" style="text;html=1;align=left;verticalAlign=middle;resizable=0;points=[];autosize=1;strokeColor=none;fillColor=none;" parent="1" vertex="1">
          <mxGeometry x="-180" y="190" width="250" height="240" as="geometry" />
        </mxCell>
        <mxCell id="ZnyY1L5BFLz_Gj6ocObE-10" value="" style="edgeStyle=orthogonalEdgeStyle;rounded=0;orthogonalLoop=1;jettySize=auto;html=1;entryX=0.012;entryY=0.55;entryDx=0;entryDy=0;entryPerimeter=0;" parent="1" source="b2ITXQFjPkYeeHDVOh84-15" target="b2ITXQFjPkYeeHDVOh84-10" edge="1">
          <mxGeometry relative="1" as="geometry">
            <Array as="points">
              <mxPoint x="2090" y="670" />
              <mxPoint x="2137" y="670" />
            </Array>
          </mxGeometry>
        </mxCell>
        <mxCell id="ZnyY1L5BFLz_Gj6ocObE-5" value="&lt;div style=&quot;color: rgb(209, 211, 219); background-color: rgb(24, 29, 39); font-family: &amp;quot;JetBrains Mono&amp;quot;, Menlo, Monaco, &amp;quot;Courier New&amp;quot;, monospace; font-size: 16px; line-height: 28px; white-space-collapse: preserve;&quot;&gt;&lt;div&gt;&lt;span style=&quot;color: #b38cff;&quot;&gt;type&lt;/span&gt; &lt;span style=&quot;color: #81cfe0;&quot;&gt;CreatePropertyRequest&lt;/span&gt; &lt;span style=&quot;color: #d5d8e0;&quot;&gt;=&lt;/span&gt; {&lt;/div&gt;&lt;div&gt;  &lt;span style=&quot;color: #e0e3ee;&quot;&gt;city&lt;/span&gt;&lt;span style=&quot;color: #d5d8e0;&quot;&gt;:&lt;/span&gt; &lt;span style=&quot;color: #81cfe0;&quot;&gt;string&lt;/span&gt;;&lt;/div&gt;&lt;div&gt;  &lt;span style=&quot;color: #e0e3ee;&quot;&gt;address&lt;/span&gt;&lt;span style=&quot;color: #d5d8e0;&quot;&gt;:&lt;/span&gt; &lt;span style=&quot;color: #81cfe0;&quot;&gt;string&lt;/span&gt;;&lt;/div&gt;&lt;div&gt;  &lt;span style=&quot;color: #e0e3ee;&quot;&gt;zip_code&lt;/span&gt;&lt;span style=&quot;color: #d5d8e0;&quot;&gt;:&lt;/span&gt; &lt;span style=&quot;color: #81cfe0;&quot;&gt;string&lt;/span&gt;;&lt;/div&gt;&lt;div&gt;  &lt;span style=&quot;color: #e0e3ee;&quot;&gt;unit&lt;/span&gt;&lt;span style=&quot;color: #d5d8e0;&quot;&gt;:&lt;/span&gt; &lt;span style=&quot;color: #81cfe0;&quot;&gt;string&lt;/span&gt;;&lt;/div&gt;&lt;div&gt;  &lt;span style=&quot;color: #e0e3ee;&quot;&gt;pins&lt;/span&gt;&lt;span style=&quot;color: #d5d8e0;&quot;&gt;:&lt;/span&gt; &lt;span style=&quot;color: #81cfe0;&quot;&gt;string&lt;/span&gt;[];&lt;/div&gt;&lt;div&gt;  &lt;span style=&quot;color: #e0e3ee;&quot;&gt;full_address&lt;/span&gt;&lt;span style=&quot;color: #d5d8e0;&quot;&gt;:&lt;/span&gt; &lt;span style=&quot;color: #81cfe0;&quot;&gt;string&lt;/span&gt;;&lt;/div&gt;&lt;div&gt;  &lt;span style=&quot;color: #e0e3ee;&quot;&gt;state&lt;/span&gt;&lt;span style=&quot;color: #d5d8e0;&quot;&gt;:&lt;/span&gt; &lt;span style=&quot;color: #81cfe0;&quot;&gt;string&lt;/span&gt;;&lt;/div&gt;&lt;div&gt;};&lt;/div&gt;&lt;/div&gt;" style="text;html=1;align=left;verticalAlign=middle;resizable=0;points=[];autosize=1;strokeColor=none;fillColor=none;" parent="1" vertex="1">
          <mxGeometry x="200" y="270" width="310" height="270" as="geometry" />
        </mxCell>
        <mxCell id="ZnyY1L5BFLz_Gj6ocObE-8" value="" style="edgeStyle=orthogonalEdgeStyle;rounded=0;orthogonalLoop=1;jettySize=auto;html=1;" parent="1" source="ZnyY1L5BFLz_Gj6ocObE-6" target="ZnyY1L5BFLz_Gj6ocObE-5" edge="1">
          <mxGeometry relative="1" as="geometry">
            <Array as="points">
              <mxPoint x="290" y="570" />
            </Array>
          </mxGeometry>
        </mxCell>
        <mxCell id="ZnyY1L5BFLz_Gj6ocObE-6" value="&lt;div style=&quot;color: rgb(209, 211, 219); background-color: rgb(24, 29, 39); font-family: &amp;quot;JetBrains Mono&amp;quot;, Menlo, Monaco, &amp;quot;Courier New&amp;quot;, monospace; font-size: 16px; line-height: 28px; white-space-collapse: preserve;&quot;&gt;&lt;span style=&quot;color: rgb(130, 217, 159);&quot;&gt;/property/properties/ POST&lt;/span&gt;&lt;/div&gt;" style="text;html=1;align=center;verticalAlign=middle;resizable=0;points=[];autosize=1;strokeColor=none;fillColor=none;" parent="1" vertex="1">
          <mxGeometry x="-170" y="550" width="270" height="40" as="geometry" />
        </mxCell>
        <mxCell id="ZnyY1L5BFLz_Gj6ocObE-9" value="&lt;div style=&quot;color: rgb(209, 211, 219); background-color: rgb(24, 29, 39); font-family: &amp;quot;JetBrains Mono&amp;quot;, Menlo, Monaco, &amp;quot;Courier New&amp;quot;, monospace; font-size: 16px; line-height: 28px; white-space-collapse: preserve;&quot;&gt;&lt;div style=&quot;line-height: 28px;&quot;&gt;&lt;div&gt;&lt;span style=&quot;color: rgb(179, 140, 255);&quot;&gt;type&lt;/span&gt; &lt;span style=&quot;color: rgb(129, 207, 224);&quot;&gt;Property&lt;/span&gt; &lt;span style=&quot;color: rgb(213, 216, 224);&quot;&gt;=&lt;/span&gt; {&lt;/div&gt;&lt;div&gt;  &lt;span style=&quot;color: rgb(224, 227, 238);&quot;&gt;id&lt;/span&gt;&lt;span style=&quot;color: rgb(213, 216, 224);&quot;&gt;:&lt;/span&gt; &lt;span style=&quot;color: rgb(129, 207, 224);&quot;&gt;string&lt;/span&gt;;&lt;/div&gt;&lt;div&gt;  &lt;span style=&quot;color: rgb(224, 227, 238);&quot;&gt;address&lt;/span&gt;&lt;span style=&quot;color: rgb(213, 216, 224);&quot;&gt;:&lt;/span&gt; &lt;span style=&quot;color: rgb(129, 207, 224);&quot;&gt;PropertyAddress&lt;/span&gt;;&lt;/div&gt;&lt;div&gt;  &lt;span style=&quot;color: rgb(224, 227, 238);&quot;&gt;details&lt;/span&gt;&lt;span style=&quot;color: rgb(213, 216, 224);&quot;&gt;:&lt;/span&gt; &lt;span style=&quot;color: rgb(129, 207, 224);&quot;&gt;PropertyDetails&lt;/span&gt;;&lt;/div&gt;&lt;div&gt;  &lt;strike&gt;&lt;span style=&quot;color: rgb(224, 227, 238);&quot;&gt;taxInfo&lt;/span&gt;&lt;span style=&quot;color: rgb(213, 216, 224);&quot;&gt;?:&lt;/span&gt; &lt;span style=&quot;color: rgb(129, 207, 224);&quot;&gt;PropertyTaxInfo&lt;/span&gt;;&lt;/strike&gt; &lt;span style=&quot;color: rgb(115, 119, 128);&quot;&gt;//only after submitting form&lt;/span&gt;&lt;/div&gt;&lt;div&gt;&lt;strike&gt;  &lt;span style=&quot;color: rgb(224, 227, 238);&quot;&gt;owner&lt;/span&gt;&lt;span style=&quot;color: rgb(213, 216, 224);&quot;&gt;?:&lt;/span&gt; &lt;span style=&quot;color: rgb(129, 207, 224);&quot;&gt;PropertyOwner&lt;/span&gt;[];&lt;/strike&gt;&lt;/div&gt;&lt;div&gt;  &lt;span style=&quot;color: rgb(224, 227, 238);&quot;&gt;images&lt;/span&gt;&lt;span style=&quot;color: rgb(213, 216, 224);&quot;&gt;:&lt;/span&gt; &lt;span style=&quot;color: rgb(129, 207, 224);&quot;&gt;PropertyImage&lt;/span&gt;[];&lt;/div&gt;&lt;div&gt;  &lt;span style=&quot;color: rgb(224, 227, 238);&quot;&gt;createdAt&lt;/span&gt;&lt;span style=&quot;color: rgb(213, 216, 224);&quot;&gt;:&lt;/span&gt; &lt;span style=&quot;color: rgb(129, 207, 224);&quot;&gt;string&lt;/span&gt;;&lt;/div&gt;&lt;div&gt;  &lt;span style=&quot;color: rgb(224, 227, 238);&quot;&gt;updatedAt&lt;/span&gt;&lt;span style=&quot;color: rgb(213, 216, 224);&quot;&gt;:&lt;/span&gt; &lt;span style=&quot;color: rgb(129, 207, 224);&quot;&gt;string&lt;/span&gt;;&lt;/div&gt;&lt;div&gt;}[];&lt;/div&gt;&lt;/div&gt;&lt;/div&gt;" style="text;html=1;align=left;verticalAlign=middle;resizable=0;points=[];autosize=1;strokeColor=none;fillColor=none;" parent="1" vertex="1">
          <mxGeometry x="640" y="270" width="570" height="290" as="geometry" />
        </mxCell>
        <mxCell id="ZnyY1L5BFLz_Gj6ocObE-12" value="form 2" style="text;html=1;align=center;verticalAlign=middle;resizable=0;points=[];autosize=1;strokeColor=none;fillColor=none;" parent="1" vertex="1">
          <mxGeometry x="760" y="220" width="60" height="30" as="geometry" />
        </mxCell>
        <mxCell id="b2ITXQFjPkYeeHDVOh84-8" value="pick one" style="text;html=1;align=center;verticalAlign=middle;resizable=0;points=[];autosize=1;strokeColor=none;fillColor=none;" parent="1" vertex="1">
          <mxGeometry x="1171" y="570" width="70" height="30" as="geometry" />
        </mxCell>
        <mxCell id="b2ITXQFjPkYeeHDVOh84-10" value="&lt;div style=&quot;background-color: rgb(24, 29, 39); line-height: 28px; color: rgb(209, 211, 219);&quot;&gt;&lt;div style=&quot;line-height: 28px;&quot;&gt;&lt;div style=&quot;color: light-dark(rgb(209, 211, 219), rgb(54, 55, 62)); font-family: &amp;quot;JetBrains Mono&amp;quot;, Menlo, Monaco, &amp;quot;Courier New&amp;quot;, monospace; font-size: 16px; white-space-collapse: preserve;&quot;&gt;&lt;span style=&quot;color: rgb(179, 140, 255);&quot;&gt;type&lt;/span&gt; &lt;span style=&quot;color: rgb(129, 207, 224);&quot;&gt;Property&lt;/span&gt; &lt;span style=&quot;color: rgb(213, 216, 224);&quot;&gt;=&lt;/span&gt; {&lt;/div&gt;&lt;div style=&quot;color: light-dark(rgb(209, 211, 219), rgb(54, 55, 62)); font-family: &amp;quot;JetBrains Mono&amp;quot;, Menlo, Monaco, &amp;quot;Courier New&amp;quot;, monospace; font-size: 16px; white-space-collapse: preserve;&quot;&gt;  &lt;span style=&quot;color: rgb(224, 227, 238);&quot;&gt;id&lt;/span&gt;&lt;span style=&quot;color: rgb(213, 216, 224);&quot;&gt;:&lt;/span&gt; &lt;span style=&quot;color: rgb(129, 207, 224);&quot;&gt;string&lt;/span&gt;;&lt;/div&gt;&lt;div style=&quot;color: light-dark(rgb(209, 211, 219), rgb(54, 55, 62)); font-family: &amp;quot;JetBrains Mono&amp;quot;, Menlo, Monaco, &amp;quot;Courier New&amp;quot;, monospace; font-size: 16px; white-space-collapse: preserve;&quot;&gt;  &lt;span style=&quot;color: rgb(224, 227, 238);&quot;&gt;address&lt;/span&gt;&lt;span style=&quot;color: rgb(213, 216, 224);&quot;&gt;:&lt;/span&gt; &lt;span style=&quot;color: rgb(129, 207, 224);&quot;&gt;PropertyAddress&lt;/span&gt;;&lt;/div&gt;&lt;div style=&quot;color: light-dark(rgb(209, 211, 219), rgb(54, 55, 62)); font-family: &amp;quot;JetBrains Mono&amp;quot;, Menlo, Monaco, &amp;quot;Courier New&amp;quot;, monospace; font-size: 16px; white-space-collapse: preserve;&quot;&gt;  &lt;span style=&quot;color: rgb(224, 227, 238);&quot;&gt;details&lt;/span&gt;&lt;span style=&quot;color: rgb(213, 216, 224);&quot;&gt;:&lt;/span&gt; &lt;span style=&quot;color: rgb(129, 207, 224);&quot;&gt;PropertyDetails&lt;/span&gt;;&lt;/div&gt;&lt;div style=&quot;color: light-dark(rgb(209, 211, 219), rgb(54, 55, 62)); font-family: &amp;quot;JetBrains Mono&amp;quot;, Menlo, Monaco, &amp;quot;Courier New&amp;quot;, monospace; font-size: 16px; white-space-collapse: preserve;&quot;&gt;&lt;strike&gt;  &lt;span style=&quot;color: rgb(224, 227, 238);&quot;&gt;taxInfo&lt;/span&gt;&lt;span style=&quot;color: rgb(213, 216, 224);&quot;&gt;?:&lt;/span&gt; &lt;span style=&quot;color: rgb(129, 207, 224);&quot;&gt;PropertyTaxInfo&lt;/span&gt;; &lt;span style=&quot;color: rgb(115, 119, 128);&quot;&gt;//only after submitting form&lt;/span&gt;&lt;/strike&gt;&lt;/div&gt;&lt;div style=&quot;color: light-dark(rgb(209, 211, 219), rgb(54, 55, 62)); font-family: &amp;quot;JetBrains Mono&amp;quot;, Menlo, Monaco, &amp;quot;Courier New&amp;quot;, monospace; font-size: 16px; white-space-collapse: preserve;&quot;&gt;  &lt;span style=&quot;color: rgb(224, 227, 238);&quot;&gt;owner&lt;/span&gt;&lt;span style=&quot;color: rgb(213, 216, 224);&quot;&gt;?:&lt;/span&gt; &lt;span style=&quot;color: rgb(129, 207, 224);&quot;&gt;PropertyOwner&lt;/span&gt;[];&lt;/div&gt;&lt;div style=&quot;color: light-dark(rgb(209, 211, 219), rgb(54, 55, 62)); font-family: &amp;quot;JetBrains Mono&amp;quot;, Menlo, Monaco, &amp;quot;Courier New&amp;quot;, monospace; font-size: 16px; white-space-collapse: preserve;&quot;&gt;  &lt;span style=&quot;color: rgb(224, 227, 238);&quot;&gt;images&lt;/span&gt;&lt;span style=&quot;color: rgb(213, 216, 224);&quot;&gt;:&lt;/span&gt; &lt;span style=&quot;color: rgb(129, 207, 224);&quot;&gt;PropertyImage&lt;/span&gt;[];&lt;/div&gt;&lt;div style=&quot;color: light-dark(rgb(209, 211, 219), rgb(54, 55, 62)); font-family: &amp;quot;JetBrains Mono&amp;quot;, Menlo, Monaco, &amp;quot;Courier New&amp;quot;, monospace; font-size: 16px; white-space-collapse: preserve;&quot;&gt;  &lt;span style=&quot;color: rgb(224, 227, 238);&quot;&gt;createdAt&lt;/span&gt;&lt;span style=&quot;color: rgb(213, 216, 224);&quot;&gt;:&lt;/span&gt; &lt;span style=&quot;color: rgb(129, 207, 224);&quot;&gt;string&lt;/span&gt;;&lt;/div&gt;&lt;div style=&quot;color: light-dark(rgb(209, 211, 219), rgb(54, 55, 62)); font-family: &amp;quot;JetBrains Mono&amp;quot;, Menlo, Monaco, &amp;quot;Courier New&amp;quot;, monospace; font-size: 16px; white-space-collapse: preserve;&quot;&gt;  &lt;span style=&quot;color: rgb(224, 227, 238);&quot;&gt;updatedAt&lt;/span&gt;&lt;span style=&quot;color: rgb(213, 216, 224);&quot;&gt;:&lt;/span&gt; &lt;span style=&quot;color: rgb(129, 207, 224);&quot;&gt;string&lt;/span&gt;;&lt;/div&gt;&lt;div style=&quot;&quot;&gt;&lt;font face=&quot;JetBrains Mono, Menlo, Monaco, Courier New, monospace&quot;&gt;&lt;span style=&quot;font-size: 16px; white-space-collapse: preserve;&quot;&gt;&lt;font color=&quot;#d1d3db&quot;&gt;  &lt;/font&gt;&lt;/span&gt;&lt;/font&gt;&lt;span style=&quot;color: rgb(224, 227, 238); font-family: &amp;quot;JetBrains Mono&amp;quot;, Menlo, Monaco, &amp;quot;Courier New&amp;quot;, monospace; font-size: 16px; white-space-collapse: preserve; background-color: light-dark(rgb(24, 29, 39), rgb(208, 213, 221));&quot;&gt;authorizedSygnatory&lt;/span&gt;&lt;span style=&quot;color: light-dark(rgb(255, 0, 0), rgb(255, 144, 144)); font-size: 16px; white-space-collapse: preserve; font-family: &amp;quot;JetBrains Mono&amp;quot;, Menlo, Monaco, &amp;quot;Courier New&amp;quot;, monospace; background-color: light-dark(rgb(24, 29, 39), rgb(208, 213, 221));&quot;&gt;: &lt;/span&gt;&lt;span style=&quot;background-color: light-dark(rgb(24, 29, 39), rgb(208, 213, 221)); white-space-collapse: preserve; font-family: &amp;quot;JetBrains Mono&amp;quot;, Menlo, Monaco, &amp;quot;Courier New&amp;quot;, monospace; font-size: 16px; color: rgb(129, 207, 224);&quot;&gt;PropertyOwner&lt;/span&gt;&lt;span style=&quot;background-color: light-dark(rgb(24, 29, 39), rgb(208, 213, 221)); color: light-dark(rgb(209, 211, 219), rgb(54, 55, 62)); white-space-collapse: preserve; font-family: &amp;quot;JetBrains Mono&amp;quot;, Menlo, Monaco, &amp;quot;Courier New&amp;quot;, monospace; font-size: 16px;&quot;&gt;[]&amp;amp;{title:string};&lt;/span&gt;&lt;/div&gt;&lt;div style=&quot;&quot;&gt;&lt;span style=&quot;color: light-dark(rgb(209, 211, 219), rgb(54, 55, 62)); font-family: &amp;quot;JetBrains Mono&amp;quot;, Menlo, Monaco, &amp;quot;Courier New&amp;quot;, monospace; font-size: 16px; white-space-collapse: preserve; background-color: light-dark(rgb(24, 29, 39), rgb(208, 213, 221));&quot;&gt;};&lt;/span&gt;&lt;/div&gt;&lt;/div&gt;&lt;/div&gt;" style="text;html=1;align=left;verticalAlign=middle;resizable=0;points=[];autosize=1;strokeColor=none;fillColor=none;" parent="1" vertex="1">
          <mxGeometry x="2130" y="265" width="570" height="320" as="geometry" />
        </mxCell>
        <mxCell id="b2ITXQFjPkYeeHDVOh84-12" value="" style="shape=flexArrow;endArrow=classic;html=1;rounded=0;fillColor=#d5e8d4;strokeColor=#82b366;" parent="1" edge="1">
          <mxGeometry width="50" height="50" relative="1" as="geometry">
            <mxPoint x="2500" y="424.52" as="sourcePoint" />
            <mxPoint x="2400" y="424.52" as="targetPoint" />
          </mxGeometry>
        </mxCell>
        <mxCell id="b2ITXQFjPkYeeHDVOh84-13" value="form 4" style="text;html=1;align=center;verticalAlign=middle;resizable=0;points=[];autosize=1;strokeColor=none;fillColor=none;" parent="1" vertex="1">
          <mxGeometry x="2240" y="240" width="60" height="30" as="geometry" />
        </mxCell>
        <mxCell id="b2ITXQFjPkYeeHDVOh84-15" value="&lt;div style=&quot;color: rgb(209, 211, 219); background-color: rgb(24, 29, 39); font-family: &amp;quot;JetBrains Mono&amp;quot;, Menlo, Monaco, &amp;quot;Courier New&amp;quot;, monospace; font-size: 16px; line-height: 28px; white-space-collapse: preserve;&quot;&gt;&lt;span style=&quot;color: #82d99f;&quot;&gt;analysis/analyze_property/?property_id=&lt;/span&gt;&lt;span style=&quot;color: #f2858c;&quot;&gt;${&lt;/span&gt;&lt;span style=&quot;color: #ded47e;&quot;&gt;property&lt;/span&gt;&lt;span style=&quot;color: #82d99f;&quot;&gt;.&lt;/span&gt;&lt;span style=&quot;color: #e0e3ee;&quot;&gt;_id&lt;/span&gt;&lt;span style=&quot;color: #f2858c;&quot;&gt;} POST&lt;/span&gt;&lt;/div&gt;" style="text;html=1;align=center;verticalAlign=middle;resizable=0;points=[];autosize=1;strokeColor=none;fillColor=none;" parent="1" vertex="1">
          <mxGeometry x="1327" y="890" width="590" height="40" as="geometry" />
        </mxCell>
        <mxCell id="b2ITXQFjPkYeeHDVOh84-16" style="edgeStyle=orthogonalEdgeStyle;rounded=0;orthogonalLoop=1;jettySize=auto;html=1;entryX=0.253;entryY=-0.114;entryDx=0;entryDy=0;entryPerimeter=0;exitX=0.478;exitY=0.994;exitDx=0;exitDy=0;exitPerimeter=0;" parent="1" source="b2ITXQFjPkYeeHDVOh84-4" target="QfVCGiHnRyfxYUild1tm-20" edge="1">
          <mxGeometry relative="1" as="geometry" />
        </mxCell>
        <mxCell id="b2ITXQFjPkYeeHDVOh84-17" value="" style="shape=flexArrow;endArrow=classic;html=1;rounded=0;fillColor=#d5e8d4;strokeColor=#82b366;" parent="1" edge="1">
          <mxGeometry width="50" height="50" relative="1" as="geometry">
            <mxPoint x="2520" y="558.82" as="sourcePoint" />
            <mxPoint x="2420" y="558.82" as="targetPoint" />
          </mxGeometry>
        </mxCell>
        <mxCell id="b2ITXQFjPkYeeHDVOh84-20" value="" style="group" parent="1" vertex="1" connectable="0">
          <mxGeometry x="1310" y="115" width="570" height="475" as="geometry" />
        </mxCell>
        <mxCell id="b2ITXQFjPkYeeHDVOh84-4" value="&lt;div style=&quot;color: rgb(209, 211, 219); background-color: rgb(24, 29, 39); font-family: &amp;quot;JetBrains Mono&amp;quot;, Menlo, Monaco, &amp;quot;Courier New&amp;quot;, monospace; font-size: 16px; line-height: 28px; white-space-collapse: preserve;&quot;&gt;&lt;div style=&quot;line-height: 28px;&quot;&gt;&lt;div&gt;&lt;span style=&quot;color: rgb(179, 140, 255);&quot;&gt;type&lt;/span&gt; &lt;span style=&quot;color: rgb(129, 207, 224);&quot;&gt;Property&lt;/span&gt; &lt;span style=&quot;color: rgb(213, 216, 224);&quot;&gt;=&lt;/span&gt; {&lt;/div&gt;&lt;div&gt;  &lt;span style=&quot;color: rgb(224, 227, 238);&quot;&gt;id&lt;/span&gt;&lt;span style=&quot;color: rgb(213, 216, 224);&quot;&gt;:&lt;/span&gt; &lt;span style=&quot;color: rgb(129, 207, 224);&quot;&gt;string&lt;/span&gt;;&lt;/div&gt;&lt;div&gt;  &lt;span style=&quot;color: rgb(224, 227, 238);&quot;&gt;address&lt;/span&gt;&lt;span style=&quot;color: rgb(213, 216, 224);&quot;&gt;:&lt;/span&gt; &lt;span style=&quot;color: rgb(129, 207, 224);&quot;&gt;PropertyAddress&lt;/span&gt;;&lt;/div&gt;&lt;div&gt;  &lt;span style=&quot;color: rgb(224, 227, 238);&quot;&gt;details&lt;/span&gt;&lt;span style=&quot;color: rgb(213, 216, 224);&quot;&gt;:&lt;/span&gt; &lt;span style=&quot;color: rgb(129, 207, 224);&quot;&gt;PropertyDetails&lt;/span&gt;;&lt;/div&gt;&lt;div&gt;  &lt;strike&gt;&lt;span style=&quot;color: rgb(224, 227, 238);&quot;&gt;taxInfo&lt;/span&gt;&lt;span style=&quot;color: rgb(213, 216, 224);&quot;&gt;?:&lt;/span&gt; &lt;span style=&quot;color: rgb(129, 207, 224);&quot;&gt;PropertyTaxInfo&lt;/span&gt;;&lt;/strike&gt; &lt;span style=&quot;color: rgb(115, 119, 128);&quot;&gt;//only after submitting form&lt;/span&gt;&lt;/div&gt;&lt;div&gt;  &lt;span style=&quot;color: rgb(224, 227, 238);&quot;&gt;owner&lt;/span&gt;&lt;span style=&quot;color: rgb(213, 216, 224);&quot;&gt;?:&lt;/span&gt; &lt;span style=&quot;color: rgb(129, 207, 224);&quot;&gt;PropertyOwner&lt;/span&gt;[];&lt;/div&gt;&lt;div&gt;  &lt;span style=&quot;color: rgb(224, 227, 238);&quot;&gt;images&lt;/span&gt;&lt;span style=&quot;color: rgb(213, 216, 224);&quot;&gt;:&lt;/span&gt; &lt;span style=&quot;color: rgb(129, 207, 224);&quot;&gt;PropertyImage&lt;/span&gt;[];&lt;/div&gt;&lt;div&gt;  &lt;span style=&quot;color: rgb(224, 227, 238);&quot;&gt;createdAt&lt;/span&gt;&lt;span style=&quot;color: rgb(213, 216, 224);&quot;&gt;:&lt;/span&gt; &lt;span style=&quot;color: rgb(129, 207, 224);&quot;&gt;string&lt;/span&gt;;&lt;/div&gt;&lt;div&gt;  &lt;span style=&quot;color: rgb(224, 227, 238);&quot;&gt;updatedAt&lt;/span&gt;&lt;span style=&quot;color: rgb(213, 216, 224);&quot;&gt;:&lt;/span&gt; &lt;span style=&quot;color: rgb(129, 207, 224);&quot;&gt;string&lt;/span&gt;;&lt;/div&gt;&lt;div&gt;};&lt;/div&gt;&lt;/div&gt;&lt;/div&gt;" style="text;html=1;align=left;verticalAlign=middle;resizable=0;points=[];autosize=1;strokeColor=none;fillColor=none;" parent="b2ITXQFjPkYeeHDVOh84-20" vertex="1">
          <mxGeometry y="155" width="570" height="290" as="geometry" />
        </mxCell>
        <mxCell id="b2ITXQFjPkYeeHDVOh84-5" value="" style="shape=flexArrow;endArrow=classic;html=1;rounded=0;fillColor=#d5e8d4;strokeColor=#82b366;" parent="b2ITXQFjPkYeeHDVOh84-20" edge="1">
          <mxGeometry width="50" height="50" relative="1" as="geometry">
            <mxPoint x="370" y="252.505" as="sourcePoint" />
            <mxPoint x="270" y="252.505" as="targetPoint" />
          </mxGeometry>
        </mxCell>
        <mxCell id="b2ITXQFjPkYeeHDVOh84-21" value="form 3, user updates" style="text;html=1;align=center;verticalAlign=middle;resizable=0;points=[];autosize=1;strokeColor=none;fillColor=none;" parent="1" vertex="1">
          <mxGeometry x="1465" y="220" width="130" height="30" as="geometry" />
        </mxCell>
        <mxCell id="b2ITXQFjPkYeeHDVOh84-22" value="&lt;div style=&quot;color: rgb(209, 211, 219); background-color: rgb(24, 29, 39); font-family: &amp;quot;JetBrains Mono&amp;quot;, Menlo, Monaco, &amp;quot;Courier New&amp;quot;, monospace; font-size: 16px; line-height: 28px; white-space-collapse: preserve;&quot;&gt;&lt;span style=&quot;color: rgb(130, 217, 159);&quot;&gt;???????/ POST&lt;/span&gt;&lt;/div&gt;" style="text;html=1;align=center;verticalAlign=middle;resizable=0;points=[];autosize=1;strokeColor=none;fillColor=none;" parent="1" vertex="1">
          <mxGeometry x="510" y="770" width="150" height="40" as="geometry" />
        </mxCell>
        <mxCell id="b2ITXQFjPkYeeHDVOh84-23" style="edgeStyle=orthogonalEdgeStyle;rounded=0;orthogonalLoop=1;jettySize=auto;html=1;entryX=0.073;entryY=0.012;entryDx=0;entryDy=0;entryPerimeter=0;" parent="1" source="ZnyY1L5BFLz_Gj6ocObE-5" target="b2ITXQFjPkYeeHDVOh84-22" edge="1">
          <mxGeometry relative="1" as="geometry" />
        </mxCell>
        <mxCell id="b2ITXQFjPkYeeHDVOh84-24" style="edgeStyle=orthogonalEdgeStyle;rounded=0;orthogonalLoop=1;jettySize=auto;html=1;entryX=0.093;entryY=0.991;entryDx=0;entryDy=0;entryPerimeter=0;" parent="1" source="b2ITXQFjPkYeeHDVOh84-22" target="ZnyY1L5BFLz_Gj6ocObE-9" edge="1">
          <mxGeometry relative="1" as="geometry" />
        </mxCell>
        <mxCell id="b2ITXQFjPkYeeHDVOh84-25" style="edgeStyle=orthogonalEdgeStyle;rounded=0;orthogonalLoop=1;jettySize=auto;html=1;entryX=0.525;entryY=0.062;entryDx=0;entryDy=0;entryPerimeter=0;" parent="1" source="b2ITXQFjPkYeeHDVOh84-10" edge="1">
          <mxGeometry relative="1" as="geometry">
            <mxPoint x="2409.25" y="642.48" as="targetPoint" />
          </mxGeometry>
        </mxCell>
        <mxCell id="b2ITXQFjPkYeeHDVOh84-29" value="" style="edgeStyle=orthogonalEdgeStyle;rounded=0;orthogonalLoop=1;jettySize=auto;html=1;" parent="1" source="b2ITXQFjPkYeeHDVOh84-26" target="b2ITXQFjPkYeeHDVOh84-28" edge="1">
          <mxGeometry relative="1" as="geometry" />
        </mxCell>
        <mxCell id="b2ITXQFjPkYeeHDVOh84-26" value="&lt;div style=&quot;color: rgb(209, 211, 219); background-color: rgb(24, 29, 39); font-family: &amp;quot;JetBrains Mono&amp;quot;, Menlo, Monaco, &amp;quot;Courier New&amp;quot;, monospace; font-size: 16px; line-height: 28px; white-space-collapse: preserve;&quot;&gt;&lt;span style=&quot;color: rgb(130, 217, 159);&quot;&gt;/property/properties/ UPDATE&lt;/span&gt;&lt;/div&gt;" style="text;html=1;align=center;verticalAlign=middle;resizable=0;points=[];autosize=1;strokeColor=none;fillColor=none;" parent="1" vertex="1">
          <mxGeometry x="2290" y="640" width="290" height="40" as="geometry" />
        </mxCell>
        <mxCell id="b2ITXQFjPkYeeHDVOh84-28" value="Dashboard" style="whiteSpace=wrap;html=1;" parent="1" vertex="1">
          <mxGeometry x="2920" y="475" width="120" height="60" as="geometry" />
        </mxCell>
        <mxCell id="b2ITXQFjPkYeeHDVOh84-30" value="validation address endpoint" style="text;html=1;align=center;verticalAlign=middle;resizable=0;points=[];autosize=1;strokeColor=none;fillColor=none;" parent="1" vertex="1">
          <mxGeometry x="500" y="810" width="170" height="30" as="geometry" />
        </mxCell>
        <mxCell id="QfVCGiHnRyfxYUild1tm-1" value="test apis//" style="text;html=1;align=center;verticalAlign=middle;whiteSpace=wrap;rounded=0;" parent="1" vertex="1">
          <mxGeometry x="790" y="855" width="350" height="235" as="geometry" />
        </mxCell>
        <mxCell id="QfVCGiHnRyfxYUild1tm-2" value="&lt;div style=&quot;color: rgb(209, 211, 219); background-color: rgb(24, 29, 39); font-family: &amp;quot;JetBrains Mono&amp;quot;, Menlo, Monaco, &amp;quot;Courier New&amp;quot;, monospace; font-size: 16px; line-height: 28px; white-space-collapse: preserve;&quot;&gt;&lt;span style=&quot;color: rgb(130, 217, 159);&quot;&gt;???????/ POST&lt;/span&gt;&lt;/div&gt;" style="text;html=1;align=center;verticalAlign=middle;resizable=0;points=[];autosize=1;strokeColor=none;fillColor=none;" parent="1" vertex="1">
          <mxGeometry x="10" y="930" width="150" height="40" as="geometry" />
        </mxCell>
        <mxCell id="QfVCGiHnRyfxYUild1tm-3" value="preliminary pin validator" style="text;html=1;align=center;verticalAlign=middle;resizable=0;points=[];autosize=1;strokeColor=none;fillColor=none;" parent="1" vertex="1">
          <mxGeometry x="10" y="980" width="150" height="30" as="geometry" />
        </mxCell>
        <mxCell id="QfVCGiHnRyfxYUild1tm-9" style="edgeStyle=orthogonalEdgeStyle;rounded=0;orthogonalLoop=1;jettySize=auto;html=1;" parent="1" source="QfVCGiHnRyfxYUild1tm-4" target="QfVCGiHnRyfxYUild1tm-2" edge="1">
          <mxGeometry relative="1" as="geometry" />
        </mxCell>
        <mxCell id="QfVCGiHnRyfxYUild1tm-4" value="search by pin&lt;div&gt;&lt;br&gt;&lt;/div&gt;" style="text;html=1;align=center;verticalAlign=middle;resizable=0;points=[];autosize=1;strokeColor=none;fillColor=none;" parent="1" vertex="1">
          <mxGeometry x="-160" y="940" width="90" height="40" as="geometry" />
        </mxCell>
        <mxCell id="QfVCGiHnRyfxYUild1tm-6" style="edgeStyle=orthogonalEdgeStyle;rounded=0;orthogonalLoop=1;jettySize=auto;html=1;exitX=0.5;exitY=0;exitDx=0;exitDy=0;" parent="1" source="QfVCGiHnRyfxYUild1tm-5" target="ZnyY1L5BFLz_Gj6ocObE-1" edge="1">
          <mxGeometry relative="1" as="geometry" />
        </mxCell>
        <mxCell id="QfVCGiHnRyfxYUild1tm-5" value="pin" style="rhombus;whiteSpace=wrap;html=1;" parent="1" vertex="1">
          <mxGeometry x="-380" y="910" width="80" height="80" as="geometry" />
        </mxCell>
        <mxCell id="QfVCGiHnRyfxYUild1tm-7" style="edgeStyle=orthogonalEdgeStyle;rounded=0;orthogonalLoop=1;jettySize=auto;html=1;entryX=0.655;entryY=1.024;entryDx=0;entryDy=0;entryPerimeter=0;" parent="1" source="ZnyY1L5BFLz_Gj6ocObE-1" target="ZnyY1L5BFLz_Gj6ocObE-2" edge="1">
          <mxGeometry relative="1" as="geometry">
            <Array as="points">
              <mxPoint x="-380" y="650" />
              <mxPoint x="-390" y="650" />
              <mxPoint x="-390" y="545" />
            </Array>
          </mxGeometry>
        </mxCell>
        <mxCell id="QfVCGiHnRyfxYUild1tm-8" style="edgeStyle=orthogonalEdgeStyle;rounded=0;orthogonalLoop=1;jettySize=auto;html=1;exitX=1;exitY=0.5;exitDx=0;exitDy=0;entryX=0.037;entryY=0.358;entryDx=0;entryDy=0;entryPerimeter=0;" parent="1" source="QfVCGiHnRyfxYUild1tm-5" target="QfVCGiHnRyfxYUild1tm-4" edge="1">
          <mxGeometry relative="1" as="geometry" />
        </mxCell>
        <mxCell id="QfVCGiHnRyfxYUild1tm-11" value="google" style="text;html=1;align=center;verticalAlign=middle;resizable=0;points=[];autosize=1;strokeColor=none;fillColor=none;" parent="1" vertex="1">
          <mxGeometry x="-455" y="80" width="60" height="30" as="geometry" />
        </mxCell>
        <mxCell id="QfVCGiHnRyfxYUild1tm-13" value="&lt;div&gt;yes&lt;/div&gt;" style="text;html=1;align=center;verticalAlign=middle;resizable=0;points=[];autosize=1;strokeColor=none;fillColor=none;" parent="1" vertex="1">
          <mxGeometry x="-290" y="960" width="40" height="30" as="geometry" />
        </mxCell>
        <mxCell id="QfVCGiHnRyfxYUild1tm-14" value="&lt;div&gt;no&lt;/div&gt;" style="text;html=1;align=center;verticalAlign=middle;resizable=0;points=[];autosize=1;strokeColor=none;fillColor=none;" parent="1" vertex="1">
          <mxGeometry x="-340" y="855" width="40" height="30" as="geometry" />
        </mxCell>
        <mxCell id="QfVCGiHnRyfxYUild1tm-16" style="edgeStyle=orthogonalEdgeStyle;rounded=0;orthogonalLoop=1;jettySize=auto;html=1;exitX=1;exitY=0.5;exitDx=0;exitDy=0;entryX=0;entryY=0.5;entryDx=0;entryDy=0;" parent="1" source="QfVCGiHnRyfxYUild1tm-15" target="QfVCGiHnRyfxYUild1tm-5" edge="1">
          <mxGeometry relative="1" as="geometry" />
        </mxCell>
        <mxCell id="QfVCGiHnRyfxYUild1tm-15" value="user decide to search by pin or address" style="rounded=1;whiteSpace=wrap;html=1;" parent="1" vertex="1">
          <mxGeometry x="-590" y="910" width="120" height="60" as="geometry" />
        </mxCell>
        <mxCell id="QfVCGiHnRyfxYUild1tm-17" style="edgeStyle=orthogonalEdgeStyle;rounded=0;orthogonalLoop=1;jettySize=auto;html=1;entryX=0.496;entryY=0.938;entryDx=0;entryDy=0;entryPerimeter=0;" parent="1" source="QfVCGiHnRyfxYUild1tm-2" target="ZnyY1L5BFLz_Gj6ocObE-6" edge="1">
          <mxGeometry relative="1" as="geometry" />
        </mxCell>
        <mxCell id="QfVCGiHnRyfxYUild1tm-18" value="accessor data endpoint" style="text;html=1;align=center;verticalAlign=middle;resizable=0;points=[];autosize=1;strokeColor=none;fillColor=none;" parent="1" vertex="1">
          <mxGeometry x="510" y="840" width="150" height="30" as="geometry" />
        </mxCell>
        <mxCell id="QfVCGiHnRyfxYUild1tm-19" style="edgeStyle=orthogonalEdgeStyle;rounded=0;orthogonalLoop=1;jettySize=auto;html=1;entryX=-0.002;entryY=0.763;entryDx=0;entryDy=0;entryPerimeter=0;" parent="1" source="ZnyY1L5BFLz_Gj6ocObE-9" target="b2ITXQFjPkYeeHDVOh84-4" edge="1">
          <mxGeometry relative="1" as="geometry" />
        </mxCell>
        <mxCell id="QfVCGiHnRyfxYUild1tm-21" style="edgeStyle=orthogonalEdgeStyle;rounded=0;orthogonalLoop=1;jettySize=auto;html=1;" parent="1" source="QfVCGiHnRyfxYUild1tm-20" target="b2ITXQFjPkYeeHDVOh84-15" edge="1">
          <mxGeometry relative="1" as="geometry" />
        </mxCell>
        <mxCell id="QfVCGiHnRyfxYUild1tm-20" value="&lt;div style=&quot;color: rgb(209, 211, 219); background-color: rgb(24, 29, 39); font-family: &amp;quot;JetBrains Mono&amp;quot;, Menlo, Monaco, &amp;quot;Courier New&amp;quot;, monospace; font-size: 16px; line-height: 28px; white-space-collapse: preserve;&quot;&gt;&lt;span style=&quot;color: rgb(130, 217, 159);&quot;&gt;/property/properties/ UPDATE&lt;/span&gt;&lt;/div&gt;" style="text;html=1;align=center;verticalAlign=middle;resizable=0;points=[];autosize=1;strokeColor=none;fillColor=none;" parent="1" vertex="1">
          <mxGeometry x="1477" y="750" width="290" height="40" as="geometry" />
        </mxCell>
        <mxCell id="QfVCGiHnRyfxYUild1tm-22" value="&lt;div style=&quot;color: rgb(209, 211, 219); background-color: rgb(24, 29, 39); font-family: &amp;quot;JetBrains Mono&amp;quot;, Menlo, Monaco, &amp;quot;Courier New&amp;quot;, monospace; font-weight: normal; font-size: 16px; line-height: 28px; white-space: pre;&quot;&gt;&lt;div&gt;&lt;span style=&quot;color: rgb(179, 140, 255);&quot;&gt;interface&lt;/span&gt;&lt;span style=&quot;color: rgb(209, 211, 219);&quot;&gt; &lt;/span&gt;&lt;span style=&quot;color: rgb(129, 207, 224);&quot;&gt;PropertyOwner&lt;/span&gt;&lt;span style=&quot;color: rgb(209, 211, 219);&quot;&gt; {&lt;/span&gt;&lt;/div&gt;&lt;div&gt;&lt;span style=&quot;color: rgb(209, 211, 219);&quot;&gt;  &lt;/span&gt;&lt;span style=&quot;color: rgb(224, 227, 238);&quot;&gt;id&lt;/span&gt;&lt;span style=&quot;color: rgb(213, 216, 224);&quot;&gt;:&lt;/span&gt;&lt;span style=&quot;color: rgb(209, 211, 219);&quot;&gt; &lt;/span&gt;&lt;span style=&quot;color: rgb(129, 207, 224);&quot;&gt;string&lt;/span&gt;&lt;span style=&quot;color: rgb(209, 211, 219);&quot;&gt;;&lt;/span&gt;&lt;/div&gt;&lt;div&gt;&lt;span style=&quot;color: rgb(209, 211, 219);&quot;&gt;  &lt;/span&gt;&lt;span style=&quot;color: rgb(224, 227, 238);&quot;&gt;name&lt;/span&gt;&lt;span style=&quot;color: rgb(213, 216, 224);&quot;&gt;:&lt;/span&gt;&lt;span style=&quot;color: rgb(209, 211, 219);&quot;&gt; &lt;/span&gt;&lt;span style=&quot;color: rgb(129, 207, 224);&quot;&gt;string&lt;/span&gt;&lt;span style=&quot;color: rgb(209, 211, 219);&quot;&gt;;&lt;/span&gt;&lt;/div&gt;&lt;div&gt;&lt;span style=&quot;color: rgb(209, 211, 219);&quot;&gt;  &lt;/span&gt;&lt;span style=&quot;color: rgb(224, 227, 238);&quot;&gt;email&lt;/span&gt;&lt;span style=&quot;color: rgb(213, 216, 224);&quot;&gt;?:&lt;/span&gt;&lt;span style=&quot;color: rgb(209, 211, 219);&quot;&gt; &lt;/span&gt;&lt;span style=&quot;color: rgb(129, 207, 224);&quot;&gt;string&lt;/span&gt;&lt;span style=&quot;color: rgb(209, 211, 219);&quot;&gt;;&lt;/span&gt;&lt;/div&gt;&lt;div&gt;&lt;span style=&quot;color: rgb(209, 211, 219);&quot;&gt;  &lt;/span&gt;&lt;span style=&quot;color: rgb(224, 227, 238);&quot;&gt;phone&lt;/span&gt;&lt;span style=&quot;color: rgb(213, 216, 224);&quot;&gt;?:&lt;/span&gt;&lt;span style=&quot;color: rgb(209, 211, 219);&quot;&gt; &lt;/span&gt;&lt;span style=&quot;color: rgb(129, 207, 224);&quot;&gt;string&lt;/span&gt;&lt;span style=&quot;color: rgb(209, 211, 219);&quot;&gt;;&lt;/span&gt;&lt;/div&gt;&lt;div&gt;&lt;span style=&quot;color: rgb(209, 211, 219);&quot;&gt;  &lt;/span&gt;&lt;span style=&quot;color: rgb(224, 227, 238);&quot;&gt;ownership_type&lt;/span&gt;&lt;span style=&quot;color: rgb(213, 216, 224);&quot;&gt;:&lt;/span&gt;&lt;span style=&quot;color: rgb(209, 211, 219);&quot;&gt; (&lt;/span&gt;&lt;span style=&quot;color: rgb(179, 140, 255);&quot;&gt;typeof&lt;/span&gt;&lt;span style=&quot;color: rgb(209, 211, 219);&quot;&gt; &lt;/span&gt;&lt;span style=&quot;color: rgb(128, 187, 255);&quot;&gt;propertyRelationship&lt;/span&gt;&lt;span style=&quot;color: rgb(209, 211, 219);&quot;&gt;)[&lt;/span&gt;&lt;span style=&quot;color: rgb(129, 207, 224);&quot;&gt;number&lt;/span&gt;&lt;span style=&quot;color: rgb(209, 211, 219);&quot;&gt;];&lt;/span&gt;&lt;/div&gt;&lt;div&gt;&lt;span style=&quot;color: rgb(209, 211, 219);&quot;&gt;  &lt;/span&gt;&lt;span style=&quot;color: rgb(224, 227, 238);&quot;&gt;address&lt;/span&gt;&lt;span style=&quot;color: rgb(213, 216, 224);&quot;&gt;?:&lt;/span&gt;&lt;span style=&quot;color: rgb(209, 211, 219);&quot;&gt; &lt;/span&gt;&lt;span style=&quot;color: rgb(129, 207, 224);&quot;&gt;PropertyAddress&lt;/span&gt;&lt;span style=&quot;color: rgb(209, 211, 219);&quot;&gt;;&lt;/span&gt;&lt;/div&gt;&lt;div&gt;&lt;span style=&quot;color: rgb(209, 211, 219);&quot;&gt;}&lt;/span&gt;&lt;/div&gt;&lt;/div&gt;" style="text;whiteSpace=wrap;html=1;" parent="1" vertex="1">
          <mxGeometry x="1680" y="-90" width="560" height="330" as="geometry" />
        </mxCell>
        <mxCell id="QfVCGiHnRyfxYUild1tm-24" value="&lt;div style=&quot;color: rgb(209, 211, 219); background-color: rgb(24, 29, 39); font-family: &amp;quot;JetBrains Mono&amp;quot;, Menlo, Monaco, &amp;quot;Courier New&amp;quot;, monospace; font-weight: normal; font-size: 16px; line-height: 28px; white-space: pre;&quot;&gt;&lt;div&gt;&lt;span style=&quot;color: rgb(179, 140, 255);&quot;&gt;type&lt;/span&gt;&lt;span style=&quot;color: rgb(209, 211, 219);&quot;&gt; &lt;/span&gt;&lt;span style=&quot;color: rgb(129, 207, 224);&quot;&gt;PropertyDetails&lt;/span&gt;&lt;span style=&quot;color: rgb(209, 211, 219);&quot;&gt; &lt;/span&gt;&lt;span style=&quot;color: rgb(213, 216, 224);&quot;&gt;=&lt;/span&gt;&lt;span style=&quot;color: rgb(209, 211, 219);&quot;&gt; {&lt;/span&gt;&lt;/div&gt;&lt;div&gt;&lt;span style=&quot;color: rgb(209, 211, 219);&quot;&gt;  &lt;/span&gt;&lt;span style=&quot;color: rgb(224, 227, 238);&quot;&gt;sqft&lt;/span&gt;&lt;span style=&quot;color: rgb(213, 216, 224);&quot;&gt;:&lt;/span&gt;&lt;span style=&quot;color: rgb(209, 211, 219);&quot;&gt; &lt;/span&gt;&lt;span style=&quot;color: rgb(129, 207, 224);&quot;&gt;number&lt;/span&gt;&lt;span style=&quot;color: rgb(209, 211, 219);&quot;&gt;;&lt;/span&gt;&lt;/div&gt;&lt;div&gt;&lt;span style=&quot;color: rgb(209, 211, 219);&quot;&gt;  &lt;/span&gt;&lt;span style=&quot;color: rgb(224, 227, 238);&quot;&gt;bedrooms&lt;/span&gt;&lt;span style=&quot;color: rgb(213, 216, 224);&quot;&gt;:&lt;/span&gt;&lt;span style=&quot;color: rgb(209, 211, 219);&quot;&gt; &lt;/span&gt;&lt;span style=&quot;color: rgb(129, 207, 224);&quot;&gt;number&lt;/span&gt;&lt;span style=&quot;color: rgb(209, 211, 219);&quot;&gt;;&lt;/span&gt;&lt;/div&gt;&lt;div&gt;&lt;span style=&quot;color: rgb(209, 211, 219);&quot;&gt;  &lt;/span&gt;&lt;span style=&quot;color: rgb(224, 227, 238);&quot;&gt;bathrooms&lt;/span&gt;&lt;span style=&quot;color: rgb(213, 216, 224);&quot;&gt;:&lt;/span&gt;&lt;span style=&quot;color: rgb(209, 211, 219);&quot;&gt; &lt;/span&gt;&lt;span style=&quot;color: rgb(129, 207, 224);&quot;&gt;number&lt;/span&gt;&lt;span style=&quot;color: rgb(209, 211, 219);&quot;&gt;;&lt;/span&gt;&lt;/div&gt;&lt;div&gt;&lt;span style=&quot;color: rgb(209, 211, 219);&quot;&gt;  &lt;/span&gt;&lt;span style=&quot;color: rgb(224, 227, 238);&quot;&gt;units&lt;/span&gt;&lt;span style=&quot;color: rgb(213, 216, 224);&quot;&gt;?:&lt;/span&gt;&lt;span style=&quot;color: rgb(209, 211, 219);&quot;&gt; &lt;/span&gt;&lt;span style=&quot;color: rgb(129, 207, 224);&quot;&gt;number&lt;/span&gt;&lt;span style=&quot;color: rgb(209, 211, 219);&quot;&gt;;&lt;/span&gt;&lt;/div&gt;&lt;div&gt;&lt;span style=&quot;color: rgb(209, 211, 219);&quot;&gt;  &lt;/span&gt;&lt;span style=&quot;color: rgb(224, 227, 238);&quot;&gt;yearBuilt&lt;/span&gt;&lt;span style=&quot;color: rgb(213, 216, 224);&quot;&gt;?:&lt;/span&gt;&lt;span style=&quot;color: rgb(209, 211, 219);&quot;&gt; &lt;/span&gt;&lt;span style=&quot;color: rgb(129, 207, 224);&quot;&gt;number&lt;/span&gt;&lt;span style=&quot;color: rgb(209, 211, 219);&quot;&gt;;&lt;/span&gt;&lt;/div&gt;&lt;div&gt;&lt;span style=&quot;color: rgb(209, 211, 219);&quot;&gt;  &lt;/span&gt;&lt;span style=&quot;color: rgb(224, 227, 238);&quot;&gt;propertyType&lt;/span&gt;&lt;span style=&quot;color: rgb(213, 216, 224);&quot;&gt;:&lt;/span&gt;&lt;/div&gt;&lt;div&gt;&lt;span style=&quot;color: rgb(209, 211, 219);&quot;&gt;    &lt;/span&gt;&lt;span style=&quot;color: rgb(213, 216, 224);&quot;&gt;|&lt;/span&gt;&lt;span style=&quot;color: rgb(209, 211, 219);&quot;&gt; &lt;/span&gt;&lt;span style=&quot;color: rgb(130, 217, 159);&quot;&gt;&quot;Residential&quot;&lt;/span&gt;&lt;/div&gt;&lt;div&gt;&lt;span style=&quot;color: rgb(209, 211, 219);&quot;&gt;    &lt;/span&gt;&lt;span style=&quot;color: rgb(213, 216, 224);&quot;&gt;|&lt;/span&gt;&lt;span style=&quot;color: rgb(209, 211, 219);&quot;&gt; &lt;/span&gt;&lt;span style=&quot;color: rgb(130, 217, 159);&quot;&gt;&quot;Commercial&quot;&lt;/span&gt;&lt;/div&gt;&lt;div&gt;&lt;span style=&quot;color: rgb(209, 211, 219);&quot;&gt;    &lt;/span&gt;&lt;span style=&quot;color: rgb(213, 216, 224);&quot;&gt;|&lt;/span&gt;&lt;span style=&quot;color: rgb(209, 211, 219);&quot;&gt; &lt;/span&gt;&lt;span style=&quot;color: rgb(130, 217, 159);&quot;&gt;&quot;Industrial&quot;&lt;/span&gt;&lt;/div&gt;&lt;div&gt;&lt;span style=&quot;color: rgb(209, 211, 219);&quot;&gt;    &lt;/span&gt;&lt;span style=&quot;color: rgb(213, 216, 224);&quot;&gt;|&lt;/span&gt;&lt;span style=&quot;color: rgb(209, 211, 219);&quot;&gt; &lt;/span&gt;&lt;span style=&quot;color: rgb(130, 217, 159);&quot;&gt;&quot;Vacant Land&quot;&lt;/span&gt;&lt;/div&gt;&lt;div&gt;&lt;span style=&quot;color: rgb(209, 211, 219);&quot;&gt;    &lt;/span&gt;&lt;span style=&quot;color: rgb(213, 216, 224);&quot;&gt;|&lt;/span&gt;&lt;span style=&quot;color: rgb(209, 211, 219);&quot;&gt; &lt;/span&gt;&lt;span style=&quot;color: rgb(130, 217, 159);&quot;&gt;&quot;Mixed Use&quot;&lt;/span&gt;&lt;/div&gt;&lt;div&gt;&lt;span style=&quot;color: rgb(209, 211, 219);&quot;&gt;    &lt;/span&gt;&lt;span style=&quot;color: rgb(213, 216, 224);&quot;&gt;|&lt;/span&gt;&lt;span style=&quot;color: rgb(209, 211, 219);&quot;&gt; &lt;/span&gt;&lt;span style=&quot;color: rgb(130, 217, 159);&quot;&gt;&quot;Apartment Building (5 or more units)&quot;&lt;/span&gt;&lt;span style=&quot;color: rgb(209, 211, 219);&quot;&gt;;&lt;/span&gt;&lt;/div&gt;&lt;div&gt;&lt;span style=&quot;color: rgb(209, 211, 219);&quot;&gt;  &lt;/span&gt;&lt;span style=&quot;color: rgb(224, 227, 238);&quot;&gt;features&lt;/span&gt;&lt;span style=&quot;color: rgb(213, 216, 224);&quot;&gt;?:&lt;/span&gt;&lt;span style=&quot;color: rgb(209, 211, 219);&quot;&gt; &lt;/span&gt;&lt;span style=&quot;color: rgb(129, 207, 224);&quot;&gt;string&lt;/span&gt;&lt;span style=&quot;color: rgb(209, 211, 219);&quot;&gt;[];&lt;/span&gt;&lt;/div&gt;&lt;div&gt;&lt;span style=&quot;color: rgb(209, 211, 219);&quot;&gt;&lt;div&gt;&lt;span style=&quot;color: rgb(224, 227, 238);&quot;&gt;  residentialType&lt;/span&gt;&lt;span style=&quot;color: rgb(213, 216, 224);&quot;&gt;?:&lt;/span&gt;&lt;span style=&quot;color: rgb(209, 211, 219);&quot;&gt; &lt;/span&gt;&lt;span style=&quot;color: rgb(129, 207, 224);&quot;&gt;string&lt;/span&gt;&lt;span style=&quot;color: rgb(209, 211, 219);&quot;&gt;;&lt;/span&gt;&lt;/div&gt;&lt;div&gt;&lt;span style=&quot;color: rgb(209, 211, 219);&quot;&gt;  &lt;/span&gt;&lt;span style=&quot;color: rgb(224, 227, 238);&quot;&gt;ownerOccupied&lt;/span&gt;&lt;span style=&quot;color: rgb(213, 216, 224);&quot;&gt;?:&lt;/span&gt;&lt;span style=&quot;color: rgb(209, 211, 219);&quot;&gt; &lt;/span&gt;&lt;span style=&quot;color: rgb(129, 207, 224);&quot;&gt;string&lt;/span&gt;&lt;span style=&quot;color: rgb(209, 211, 219);&quot;&gt;;&lt;/span&gt;&lt;/div&gt;&lt;div&gt;&lt;span style=&quot;color: rgb(209, 211, 219);&quot;&gt;  &lt;/span&gt;&lt;span style=&quot;color: rgb(224, 227, 238);&quot;&gt;condominiumOwnership&lt;/span&gt;&lt;span style=&quot;color: rgb(213, 216, 224);&quot;&gt;?:&lt;/span&gt;&lt;span style=&quot;color: rgb(209, 211, 219);&quot;&gt; &lt;/span&gt;&lt;span style=&quot;color: rgb(129, 207, 224);&quot;&gt;string&lt;/span&gt;&lt;span style=&quot;color: rgb(209, 211, 219);&quot;&gt; &lt;/span&gt;&lt;span style=&quot;color: rgb(213, 216, 224);&quot;&gt;|&lt;/span&gt;&lt;span style=&quot;color: rgb(209, 211, 219);&quot;&gt; &lt;/span&gt;&lt;span style=&quot;color: rgb(129, 207, 224);&quot;&gt;null&lt;/span&gt;&lt;span style=&quot;color: rgb(209, 211, 219);&quot;&gt;;&lt;/span&gt;&lt;/div&gt;&lt;/span&gt;&lt;/div&gt;&lt;div&gt;&lt;span style=&quot;color: rgb(209, 211, 219);&quot;&gt;};&lt;/span&gt;&lt;/div&gt;&lt;/div&gt;" style="text;whiteSpace=wrap;html=1;" parent="1" vertex="1">
          <mxGeometry x="1140" y="-360" width="470" height="440" as="geometry" />
        </mxCell>
        <mxCell id="QfVCGiHnRyfxYUild1tm-29" value="" style="shape=flexArrow;endArrow=classic;html=1;rounded=0;fillColor=#d5e8d4;strokeColor=#82b366;" parent="1" edge="1">
          <mxGeometry width="50" height="50" relative="1" as="geometry">
            <mxPoint x="1680" y="50" as="sourcePoint" />
            <mxPoint x="1580" y="50" as="targetPoint" />
          </mxGeometry>
        </mxCell>
        <mxCell id="QfVCGiHnRyfxYUild1tm-30" value="" style="shape=flexArrow;endArrow=classic;html=1;rounded=0;fillColor=#d5e8d4;strokeColor=#82b366;" parent="1" edge="1">
          <mxGeometry width="50" height="50" relative="1" as="geometry">
            <mxPoint x="1680" y="80" as="sourcePoint" />
            <mxPoint x="1580" y="80" as="targetPoint" />
          </mxGeometry>
        </mxCell>
        <mxCell id="QfVCGiHnRyfxYUild1tm-31" value="" style="shape=flexArrow;endArrow=classic;html=1;rounded=0;fillColor=#d5e8d4;strokeColor=#82b366;" parent="1" edge="1">
          <mxGeometry width="50" height="50" relative="1" as="geometry">
            <mxPoint x="1680" y="115" as="sourcePoint" />
            <mxPoint x="1580" y="115" as="targetPoint" />
          </mxGeometry>
        </mxCell>
        <mxCell id="V2_1_J6uSMGVymomLYrE-1" value="&lt;pre style=&quot;box-sizing: border-box; max-height: 400px; min-height: 6em; overflow: auto; background: rgb(51, 51, 51); border-radius: 4px; hyphens: auto; margin: 0px; padding: 0.5em; text-wrap-mode: wrap; word-break: break-word; overflow-wrap: break-word; color: white; font-weight: 600; text-align: start;&quot; class=&quot;body-param__example microlight&quot;&gt;&lt;code style=&quot;font-family: Consolas, monaco, monospace; font-size: 1em; box-sizing: border-box; word-break: break-all; text-wrap-mode: nowrap;&quot; class=&quot;language-json&quot;&gt;{&lt;br&gt;  &lt;span class=&quot;hljs-attr&quot;&gt;&quot;county&quot;&lt;/span&gt;: &lt;span style=&quot;color: rgb(162, 252, 162);&quot;&gt;&quot;string&quot;&lt;/span&gt;,&lt;br&gt;  &lt;span class=&quot;hljs-attr&quot;&gt;&quot;state&quot;&lt;/span&gt;: &lt;span style=&quot;color: rgb(162, 252, 162);&quot;&gt;&quot;string&quot;&lt;/span&gt;,&lt;br&gt;  &lt;span class=&quot;hljs-attr&quot;&gt;&quot;unit&quot;?&lt;/span&gt;: &lt;span style=&quot;color: rgb(162, 252, 162);&quot;&gt;&quot;string&quot;&lt;/span&gt;,&lt;br&gt;  &lt;span class=&quot;hljs-attr&quot;&gt;&quot;pins&quot;&lt;/span&gt;: [&lt;br&gt;    &lt;span style=&quot;color: rgb(162, 252, 162);&quot;&gt;&quot;string&quot;&lt;/span&gt;&lt;br&gt;  ]&lt;br&gt;}&lt;/code&gt;&lt;/pre&gt;" style="text;html=1;align=center;verticalAlign=middle;resizable=0;points=[];autosize=1;strokeColor=none;fillColor=none;" vertex="1" parent="1">
          <mxGeometry x="-210" y="1000" width="190" height="140" as="geometry" />
        </mxCell>
      </root>
    </mxGraphModel>
  </diagram>
</mxfile>
